<svg width="482" height="450" viewBox="0 0 482 450" fill="none" xmlns="http://www.w3.org/2000/svg">
<path d="M50.3018 67L47.2783 55.4941H27.332L24.2246 67H6L26.0303 5.35547H48.1602L68.4424 67H50.3018ZM43.835 41.8887L41.1895 31.8105C40.5736 29.571 39.8177 26.6735 38.9219 23.1182C38.054 19.5628 37.4801 17.0153 37.2002 15.4756C36.9482 16.9033 36.4443 19.2549 35.6885 22.5303C34.9606 25.8057 33.3229 32.2585 30.7754 41.8887H43.835Z" fill="#1B2534"/>
<path d="M95.8213 67.8398C88.0387 67.8398 82.1318 65.7402 78.1006 61.541C74.0973 57.3418 72.0957 51.3089 72.0957 43.4424C72.0957 35.5479 74.2653 29.431 78.6045 25.0918C82.9437 20.7526 89.1165 18.583 97.123 18.583C102.638 18.583 107.831 19.7868 112.702 22.1943L107.873 34.3301C105.885 33.4622 104.052 32.7764 102.372 32.2725C100.692 31.7406 98.9427 31.4746 97.123 31.4746C94.4635 31.4746 92.4059 32.5104 90.9502 34.582C89.4945 36.6536 88.7666 39.5791 88.7666 43.3584C88.7666 50.973 91.5801 54.7803 97.207 54.7803C102.022 54.7803 106.641 53.3805 111.064 50.5811V63.6406C106.837 66.4401 101.756 67.8398 95.8213 67.8398Z" fill="#1B2534"/>
<path d="M142.181 67.8398C134.398 67.8398 128.491 65.7402 124.46 61.541C120.457 57.3418 118.455 51.3089 118.455 43.4424C118.455 35.5479 120.625 29.431 124.964 25.0918C129.303 20.7526 135.476 18.583 143.482 18.583C148.997 18.583 154.19 19.7868 159.062 22.1943L154.232 34.3301C152.245 33.4622 150.411 32.7764 148.731 32.2725C147.052 31.7406 145.302 31.4746 143.482 31.4746C140.823 31.4746 138.765 32.5104 137.31 34.582C135.854 36.6536 135.126 39.5791 135.126 43.3584C135.126 50.973 137.939 54.7803 143.566 54.7803C148.382 54.7803 153.001 53.3805 157.424 50.5811V63.6406C153.197 66.4401 148.116 67.8398 142.181 67.8398Z" fill="#1B2534"/>
<path d="M189.842 67.8398C181.919 67.8398 175.76 65.7402 171.365 61.541C166.998 57.3138 164.814 51.3089 164.814 43.5264C164.814 35.4919 166.844 29.333 170.903 25.0498C174.963 20.7386 180.757 18.583 188.288 18.583C195.455 18.583 200.984 20.4587 204.875 24.21C208.794 27.9333 210.754 33.3083 210.754 40.335V47.6416H181.401C181.513 50.3011 182.479 52.3867 184.299 53.8984C186.146 55.4102 188.652 56.166 191.815 56.166C194.699 56.166 197.344 55.9001 199.752 55.3682C202.188 54.8083 204.819 53.8704 207.646 52.5547V64.3545C205.071 65.6702 202.411 66.5801 199.668 67.084C196.924 67.5879 193.649 67.8398 189.842 67.8398ZM188.876 29.7529C186.944 29.7529 185.321 30.3688 184.005 31.6006C182.717 32.8044 181.961 34.708 181.737 37.3115H195.847C195.791 35.016 195.133 33.1823 193.873 31.8105C192.641 30.4388 190.976 29.7529 188.876 29.7529Z" fill="#1B2534"/>
<path d="M256.777 52.3867C256.777 57.4818 255.042 61.3311 251.57 63.9346C248.099 66.5381 243.116 67.8398 236.621 67.8398C233.094 67.8398 230.028 67.6439 227.425 67.252C224.821 66.888 222.162 66.2021 219.446 65.1943V52.0508C221.994 53.1706 224.779 54.0944 227.803 54.8223C230.854 55.5501 233.57 55.9141 235.949 55.9141C239.505 55.9141 241.282 55.1022 241.282 53.4785C241.282 52.6387 240.778 51.8968 239.771 51.2529C238.791 50.5811 235.907 49.2933 231.12 47.3896C226.753 45.598 223.701 43.5684 221.966 41.3008C220.23 39.0052 219.362 36.1077 219.362 32.6084C219.362 28.1852 221.07 24.7419 224.485 22.2783C227.901 19.8148 232.73 18.583 238.973 18.583C242.108 18.583 245.048 18.9329 247.791 19.6328C250.562 20.3047 253.432 21.2985 256.399 22.6143L251.948 33.1963C249.765 32.2165 247.455 31.3906 245.02 30.7188C242.584 30.0189 240.596 29.6689 239.057 29.6689C236.369 29.6689 235.025 30.3268 235.025 31.6426C235.025 32.4544 235.487 33.1543 236.411 33.7422C237.363 34.3021 240.078 35.4639 244.558 37.2275C247.889 38.5993 250.367 39.943 251.99 41.2588C253.642 42.5745 254.846 44.1283 255.602 45.9199C256.385 47.6836 256.777 49.8392 256.777 52.3867Z" fill="#1B2534"/>
<path d="M302.633 52.3867C302.633 57.4818 300.897 61.3311 297.426 63.9346C293.954 66.5381 288.971 67.8398 282.477 67.8398C278.949 67.8398 275.884 67.6439 273.28 67.252C270.677 66.888 268.017 66.2021 265.302 65.1943V52.0508C267.849 53.1706 270.635 54.0944 273.658 54.8223C276.71 55.5501 279.425 55.9141 281.805 55.9141C285.36 55.9141 287.138 55.1022 287.138 53.4785C287.138 52.6387 286.634 51.8968 285.626 51.2529C284.646 50.5811 281.763 49.2933 276.976 47.3896C272.608 45.598 269.557 43.5684 267.821 41.3008C266.086 39.0052 265.218 36.1077 265.218 32.6084C265.218 28.1852 266.925 24.7419 270.341 22.2783C273.756 19.8148 278.585 18.583 284.828 18.583C287.964 18.583 290.903 18.9329 293.646 19.6328C296.418 20.3047 299.287 21.2985 302.255 22.6143L297.804 33.1963C295.62 32.2165 293.311 31.3906 290.875 30.7188C288.439 30.0189 286.452 29.6689 284.912 29.6689C282.225 29.6689 280.881 30.3268 280.881 31.6426C280.881 32.4544 281.343 33.1543 282.267 33.7422C283.218 34.3021 285.934 35.4639 290.413 37.2275C293.744 38.5993 296.222 39.943 297.846 41.2588C299.497 42.5745 300.701 44.1283 301.457 45.9199C302.241 47.6836 302.633 49.8392 302.633 52.3867Z" fill="#1B2534"/>
<path d="M328.248 67H311.829V19.4229H328.248V67ZM311.409 7.58105C311.409 5.11751 312.095 3.28385 313.467 2.08008C314.839 0.876302 317.05 0.274414 320.102 0.274414C323.153 0.274414 325.379 0.890299 326.778 2.12207C328.178 3.35384 328.878 5.1735 328.878 7.58105C328.878 12.3962 325.952 14.8037 320.102 14.8037C314.307 14.8037 311.409 12.3962 311.409 7.58105Z" fill="#1B2534"/>
<path d="M368.771 18.583C373.95 18.583 378.051 20.7526 381.074 25.0918C384.126 29.431 385.651 35.4359 385.651 43.1064C385.651 50.833 384.112 56.8939 381.032 61.2891C377.981 65.6562 373.726 67.8398 368.267 67.8398C366.503 67.8398 364.935 67.6439 363.563 67.252C362.192 66.888 360.96 66.3701 359.868 65.6982C358.804 65.0264 357.559 63.9066 356.131 62.3389H355.123L352.52 67H339.712V1.66016H356.131V16.4414C356.131 18.2051 355.935 21.2425 355.543 25.5537H356.131C357.727 23.0902 359.56 21.3125 361.632 20.2207C363.731 19.1289 366.111 18.583 368.771 18.583ZM362.766 31.4746C360.47 31.4746 358.79 32.2725 357.727 33.8682C356.663 35.4639 356.131 37.9694 356.131 41.3848V43.6943C356.131 47.5856 356.663 50.3851 357.727 52.0928C358.79 53.7725 360.526 54.6123 362.934 54.6123C364.865 54.6123 366.349 53.6325 367.385 51.6729C368.421 49.6852 368.938 46.7738 368.938 42.9385C368.938 35.2959 366.881 31.4746 362.766 31.4746Z" fill="#1B2534"/>
<path d="M411.477 67H395.058V1.66016H411.477V67Z" fill="#1B2534"/>
<path d="M445.826 67.8398C437.904 67.8398 431.745 65.7402 427.35 61.541C422.982 57.3138 420.799 51.3089 420.799 43.5264C420.799 35.4919 422.828 29.333 426.888 25.0498C430.947 20.7386 436.742 18.583 444.272 18.583C451.439 18.583 456.968 20.4587 460.859 24.21C464.779 27.9333 466.738 33.3083 466.738 40.335V47.6416H437.386C437.498 50.3011 438.464 52.3867 440.283 53.8984C442.131 55.4102 444.636 56.166 447.8 56.166C450.683 56.166 453.329 55.9001 455.736 55.3682C458.172 54.8083 460.803 53.8704 463.631 52.5547V64.3545C461.055 65.6702 458.396 66.5801 455.652 67.084C452.909 67.5879 449.633 67.8398 445.826 67.8398ZM444.86 29.7529C442.929 29.7529 441.305 30.3688 439.989 31.6006C438.701 32.8044 437.946 34.708 437.722 37.3115H451.831C451.775 35.016 451.117 33.1823 449.857 31.8105C448.626 30.4388 446.96 29.7529 444.86 29.7529Z" fill="#1B2534"/>
<path d="M47.0801 340H12.3262V281.463H47.0801V294.155H28.1416V303.364H45.6787V316.057H28.1416V327.107H47.0801V340Z" fill="#1B2534"/>
<path d="M66.0186 316.857L52.165 294.636H69.9424L76.8291 307.368L83.876 294.636H101.693L87.4795 316.857L102.254 340H84.4766L76.8291 326.227L69.2217 340H51.4043L66.0186 316.857Z" fill="#1B2534"/>
<path d="M135.286 340.801C132.991 340.801 130.935 340.427 129.12 339.68C127.305 338.906 125.503 337.531 123.715 335.556H122.994C123.475 338.732 123.715 340.707 123.715 341.481V359.699H108.06V294.636H120.792L122.994 300.401H123.715C126.624 296.024 130.642 293.835 135.767 293.835C140.785 293.835 144.722 295.917 147.578 300.081C150.434 304.245 151.862 309.957 151.862 317.218C151.862 324.532 150.368 330.297 147.378 334.515C144.415 338.705 140.384 340.801 135.286 340.801ZM130.041 306.127C127.745 306.127 126.131 306.954 125.196 308.609C124.289 310.238 123.795 312.667 123.715 315.896V317.138C123.715 321.035 124.235 323.851 125.276 325.586C126.317 327.321 127.959 328.188 130.201 328.188C132.203 328.188 133.658 327.334 134.565 325.626C135.473 323.891 135.927 321.035 135.927 317.058C135.927 313.16 135.473 310.371 134.565 308.689C133.658 306.981 132.15 306.127 130.041 306.127Z" fill="#1B2534"/>
<path d="M182.732 340.801C175.178 340.801 169.306 338.799 165.115 334.795C160.951 330.764 158.869 325.039 158.869 317.618C158.869 309.957 160.804 304.085 164.675 300.001C168.545 295.89 174.071 293.835 181.251 293.835C188.084 293.835 193.356 295.623 197.066 299.2C200.803 302.75 202.672 307.875 202.672 314.575V321.542H174.685C174.791 324.078 175.712 326.066 177.447 327.508C179.209 328.949 181.598 329.67 184.614 329.67C187.364 329.67 189.886 329.416 192.182 328.909C194.504 328.375 197.013 327.481 199.709 326.227V337.478C197.253 338.732 194.717 339.6 192.102 340.08C189.486 340.561 186.363 340.801 182.732 340.801ZM181.812 304.485C179.97 304.485 178.422 305.073 177.167 306.247C175.939 307.395 175.218 309.21 175.005 311.692H188.458C188.405 309.504 187.777 307.755 186.576 306.447C185.402 305.139 183.813 304.485 181.812 304.485Z" fill="#1B2534"/>
<path d="M238.907 293.835C240.269 293.835 241.563 293.942 242.791 294.155L243.672 294.315L242.271 309.09C240.989 308.77 239.214 308.609 236.945 308.609C233.529 308.609 231.046 309.397 229.498 310.972C227.95 312.52 227.176 314.762 227.176 317.698V340H211.521V294.636H223.172L225.614 301.883H226.375C227.683 299.48 229.498 297.545 231.82 296.077C234.169 294.582 236.532 293.835 238.907 293.835Z" fill="#1B2534"/>
<path d="M265.773 340H250.118V294.636H265.773V340ZM249.718 283.345C249.718 280.996 250.372 279.247 251.68 278.1C252.988 276.952 255.096 276.378 258.006 276.378C260.915 276.378 263.037 276.965 264.372 278.14C265.707 279.314 266.374 281.049 266.374 283.345C266.374 287.936 263.585 290.231 258.006 290.231C252.48 290.231 249.718 287.936 249.718 283.345Z" fill="#1B2534"/>
<path d="M298.605 340.801C291.051 340.801 285.179 338.799 280.988 334.795C276.824 330.764 274.742 325.039 274.742 317.618C274.742 309.957 276.677 304.085 280.548 300.001C284.418 295.89 289.944 293.835 297.124 293.835C303.957 293.835 309.229 295.623 312.939 299.2C316.676 302.75 318.545 307.875 318.545 314.575V321.542H290.558C290.664 324.078 291.585 326.066 293.32 327.508C295.082 328.949 297.471 329.67 300.487 329.67C303.237 329.67 305.759 329.416 308.055 328.909C310.377 328.375 312.886 327.481 315.582 326.227V337.478C313.126 338.732 310.59 339.6 307.975 340.08C305.359 340.561 302.236 340.801 298.605 340.801ZM297.685 304.485C295.843 304.485 294.295 305.073 293.04 306.247C291.812 307.395 291.091 309.21 290.878 311.692H304.331C304.278 309.504 303.65 307.755 302.449 306.447C301.275 305.139 299.687 304.485 297.685 304.485Z" fill="#1B2534"/>
<path d="M356.021 340V315.256C356.021 312.24 355.581 309.971 354.7 308.449C353.846 306.901 352.458 306.127 350.536 306.127C347.894 306.127 345.985 307.181 344.811 309.29C343.636 311.399 343.049 315.016 343.049 320.141V340H327.394V294.636H339.205L341.167 300.241H342.088C343.423 298.106 345.264 296.504 347.613 295.437C349.989 294.369 352.712 293.835 355.781 293.835C360.799 293.835 364.697 295.29 367.473 298.199C370.275 301.109 371.677 305.206 371.677 310.491V340H356.021Z" fill="#1B2534"/>
<path d="M402.987 340.801C395.567 340.801 389.935 338.799 386.091 334.795C382.274 330.791 380.365 325.039 380.365 317.538C380.365 310.011 382.434 304.178 386.571 300.041C390.709 295.904 396.594 293.835 404.229 293.835C409.487 293.835 414.438 294.983 419.083 297.278L414.479 308.85C412.583 308.022 410.835 307.368 409.233 306.888C407.632 306.381 405.964 306.127 404.229 306.127C401.693 306.127 399.731 307.115 398.343 309.09C396.955 311.065 396.261 313.854 396.261 317.458C396.261 324.718 398.943 328.349 404.309 328.349C408.9 328.349 413.304 327.014 417.521 324.345V336.797C413.491 339.466 408.646 340.801 402.987 340.801Z" fill="#1B2534"/>
<path d="M448.432 340.801C440.878 340.801 435.005 338.799 430.814 334.795C426.65 330.764 424.568 325.039 424.568 317.618C424.568 309.957 426.504 304.085 430.374 300.001C434.244 295.89 439.77 293.835 446.95 293.835C453.784 293.835 459.055 295.623 462.766 299.2C466.503 302.75 468.371 307.875 468.371 314.575V321.542H440.384C440.491 324.078 441.411 326.066 443.146 327.508C444.908 328.949 447.297 329.67 450.313 329.67C453.063 329.67 455.585 329.416 457.881 328.909C460.203 328.375 462.712 327.481 465.408 326.227V337.478C462.952 338.732 460.417 339.6 457.801 340.08C455.185 340.561 452.062 340.801 448.432 340.801ZM447.511 304.485C445.669 304.485 444.121 305.073 442.866 306.247C441.638 307.395 440.918 309.21 440.704 311.692H454.157C454.104 309.504 453.477 307.755 452.275 306.447C451.101 305.139 449.513 304.485 447.511 304.485Z" fill="#1B2534"/>
<path d="M50.5703 449L46.7031 445.016C44.3594 446.5 42.4323 447.529 40.9219 448.102C39.4375 448.648 37.7578 449.065 35.8828 449.352C34.0339 449.638 31.9115 449.781 29.5156 449.781C25.401 449.781 21.7552 449.078 18.5781 447.672C15.4271 446.266 13.0052 444.299 11.3125 441.773C9.64583 439.247 8.8125 436.37 8.8125 433.141C8.8125 426.318 12.3542 421.096 19.4375 417.477C17.8229 415.654 16.5599 413.727 15.6484 411.695C14.763 409.638 14.3203 407.32 14.3203 404.742C14.3203 400.576 15.9219 397.268 19.125 394.82C22.3542 392.372 26.7812 391.148 32.4062 391.148C37.901 391.148 42.1719 392.372 45.2188 394.82C48.2917 397.242 49.8281 400.549 49.8281 404.742C49.8281 407.633 48.9948 410.315 47.3281 412.789C45.6875 415.237 43.0833 417.542 39.5156 419.703L47.2891 427.086C49.2422 424.091 50.5964 420.706 51.3516 416.93H67.2109C66.4297 420.523 65.1927 424.13 63.5 427.75C61.8333 431.344 59.9453 434.43 57.8359 437.008L70.3359 449H50.5703ZM24.5547 432.047C24.5547 433.688 25.1406 435.029 26.3125 436.07C27.4844 437.112 29.0339 437.633 30.9609 437.633C32.4453 437.633 33.7474 437.438 34.8672 437.047C35.987 436.656 36.8464 436.214 37.4453 435.719L27.7578 425.875C25.6224 427.464 24.5547 429.521 24.5547 432.047ZM36.0781 404.742C36.0781 403.466 35.7005 402.555 34.9453 402.008C34.2161 401.435 33.2917 401.148 32.1719 401.148C31.0781 401.148 30.1146 401.474 29.2812 402.125C28.474 402.776 28.0703 403.818 28.0703 405.25C28.0703 407.203 29.2161 409.221 31.5078 411.305C32.9922 410.471 34.125 409.482 34.9062 408.336C35.6875 407.164 36.0781 405.966 36.0781 404.742Z" fill="#1B2534"/>
<path d="M96.8999 449.011V391.902H112.408V449.011H96.8999Z" fill="#0970B9"/>
<path d="M151.822 449.011V424.87C151.822 421.928 151.392 419.714 150.533 418.23C149.699 416.719 148.345 415.964 146.47 415.964C143.892 415.964 142.03 416.993 140.884 419.05C139.738 421.107 139.166 424.636 139.166 429.636V449.011H123.892V404.753H135.416L137.33 410.222H138.228C139.53 408.139 141.327 406.576 143.619 405.534C145.936 404.493 148.593 403.972 151.587 403.972C156.483 403.972 160.285 405.391 162.994 408.23C165.728 411.068 167.095 415.066 167.095 420.222V449.011H151.822Z" fill="#0970B9"/>
<path d="M199.166 437.722C201.223 437.722 203.684 437.214 206.548 436.198V447.331C204.491 448.217 202.525 448.842 200.65 449.206C198.801 449.597 196.626 449.792 194.126 449.792C188.996 449.792 185.298 448.542 183.033 446.042C180.767 443.516 179.634 439.649 179.634 434.441V416.198H174.283V409.987L181.08 405.183L185.025 395.886H195.025V404.753H205.884V416.198H195.025V433.425C195.025 436.29 196.405 437.722 199.166 437.722Z" fill="#0970B9"/>
<path d="M235.65 449.792C228.28 449.792 222.551 447.839 218.462 443.933C214.4 440.001 212.369 434.415 212.369 427.175C212.369 419.701 214.257 413.972 218.033 409.987C221.809 405.977 227.199 403.972 234.205 403.972C240.871 403.972 246.014 405.717 249.634 409.206C253.28 412.67 255.103 417.67 255.103 424.206V431.003H227.798C227.903 433.477 228.801 435.417 230.494 436.823C232.212 438.23 234.543 438.933 237.486 438.933C240.168 438.933 242.629 438.685 244.869 438.191C247.134 437.67 249.582 436.797 252.212 435.573V446.55C249.817 447.774 247.343 448.62 244.791 449.089C242.238 449.558 239.192 449.792 235.65 449.792ZM234.751 414.362C232.955 414.362 231.444 414.935 230.22 416.081C229.022 417.201 228.319 418.972 228.111 421.394H241.236C241.184 419.258 240.572 417.553 239.4 416.277C238.254 415.001 236.705 414.362 234.751 414.362Z" fill="#0970B9"/>
<path d="M290.455 403.972C291.783 403.972 293.046 404.076 294.244 404.284L295.103 404.441L293.736 418.855C292.486 418.542 290.754 418.386 288.541 418.386C285.207 418.386 282.785 419.154 281.275 420.691C279.764 422.201 279.009 424.389 279.009 427.253V449.011H263.736V404.753H275.103L277.486 411.823H278.228C279.504 409.48 281.275 407.592 283.541 406.159C285.832 404.701 288.137 403.972 290.455 403.972Z" fill="#0970B9"/>
<path d="M328.345 416.198H318.931V449.011H303.658V416.198H297.798V408.698L303.97 404.948V404.206C303.97 398.373 305.155 394.18 307.525 391.628C309.921 389.076 313.749 387.8 319.009 387.8C321.041 387.8 322.955 387.956 324.751 388.269C326.574 388.581 328.684 389.128 331.08 389.909L327.798 399.792C325.923 399.271 324.087 399.011 322.291 399.011C321.119 399.011 320.259 399.376 319.712 400.105C319.192 400.808 318.931 401.967 318.931 403.581V404.753H328.345V416.198Z" fill="#0970B9"/>
<path d="M363.228 449.011L360.298 443.152H359.986C357.929 445.704 355.832 447.448 353.697 448.386C351.561 449.323 348.801 449.792 345.416 449.792C341.249 449.792 337.968 448.542 335.572 446.042C333.176 443.542 331.978 440.027 331.978 435.495C331.978 430.782 333.619 427.279 336.9 424.987C340.181 422.67 344.934 421.368 351.158 421.081L358.541 420.847V420.222C358.541 416.576 356.744 414.753 353.15 414.753C349.921 414.753 345.819 415.847 340.845 418.034L336.431 407.956C341.587 405.3 348.098 403.972 355.962 403.972C361.639 403.972 366.028 405.378 369.126 408.191C372.251 411.003 373.814 414.935 373.814 419.987V449.011H363.228ZM351.9 439.011C353.749 439.011 355.324 438.425 356.626 437.253C357.955 436.081 358.619 434.558 358.619 432.683V429.245L355.103 429.402C350.077 429.584 347.564 431.433 347.564 434.948C347.564 437.657 349.009 439.011 351.9 439.011Z" fill="#0970B9"/>
<path d="M404.361 449.792C397.121 449.792 391.626 447.839 387.876 443.933C384.153 440.027 382.291 434.415 382.291 427.097C382.291 419.753 384.309 414.063 388.345 410.027C392.382 405.99 398.124 403.972 405.572 403.972C410.702 403.972 415.533 405.092 420.064 407.331L415.572 418.62C413.723 417.813 412.017 417.175 410.455 416.706C408.892 416.211 407.264 415.964 405.572 415.964C403.098 415.964 401.184 416.928 399.83 418.855C398.475 420.782 397.798 423.503 397.798 427.019C397.798 434.102 400.416 437.644 405.65 437.644C410.129 437.644 414.426 436.342 418.541 433.737V445.886C414.608 448.49 409.882 449.792 404.361 449.792Z" fill="#0970B9"/>
<path d="M448.697 449.792C441.327 449.792 435.598 447.839 431.509 443.933C427.447 440.001 425.416 434.415 425.416 427.175C425.416 419.701 427.304 413.972 431.08 409.987C434.856 405.977 440.246 403.972 447.251 403.972C453.918 403.972 459.061 405.717 462.681 409.206C466.327 412.67 468.15 417.67 468.15 424.206V431.003H440.845C440.949 433.477 441.848 435.417 443.541 436.823C445.259 438.23 447.59 438.933 450.533 438.933C453.215 438.933 455.676 438.685 457.916 438.191C460.181 437.67 462.629 436.797 465.259 435.573V446.55C462.863 447.774 460.389 448.62 457.837 449.089C455.285 449.558 452.238 449.792 448.697 449.792ZM447.798 414.362C446.001 414.362 444.491 414.935 443.267 416.081C442.069 417.201 441.366 418.972 441.158 421.394H454.283C454.231 419.258 453.619 417.553 452.447 416.277C451.301 415.001 449.751 414.362 447.798 414.362Z" fill="#0970B9"/>
<g filter="url(#filter0_d_193_128)">
<path d="M127.816 104.227V190.164C127.816 208.849 122.51 223.335 111.898 233.621C101.352 243.842 86.1172 248.953 66.1953 248.953C46.7292 248.953 31.7552 243.973 21.2734 234.012C10.8568 224.051 5.64844 209.728 5.64844 191.043V104.227H44.418V188.016C44.418 198.107 46.306 205.431 50.082 209.988C53.8581 214.546 59.4245 216.824 66.7812 216.824C74.6589 216.824 80.3555 214.578 83.8711 210.086C87.4518 205.529 89.2422 198.107 89.2422 187.82V104.227H127.816Z" fill="url(#paint0_linear_193_128)"/>
<path d="M241 213.016C241 224.865 236.964 233.816 228.891 239.871C220.818 245.926 209.229 248.953 194.125 248.953C185.922 248.953 178.793 248.497 172.738 247.586C166.684 246.74 160.499 245.145 154.184 242.801V212.234C160.108 214.839 166.586 216.987 173.617 218.68C180.714 220.372 187.029 221.219 192.562 221.219C200.831 221.219 204.965 219.331 204.965 215.555C204.965 213.602 203.793 211.876 201.449 210.379C199.171 208.816 192.465 205.822 181.332 201.395C171.176 197.228 164.079 192.508 160.043 187.234C156.007 181.896 153.988 175.158 153.988 167.02C153.988 156.733 157.96 148.725 165.902 142.996C173.845 137.267 185.076 134.402 199.594 134.402C206.885 134.402 213.721 135.216 220.102 136.844C226.547 138.406 233.22 140.717 240.121 143.777L229.77 168.387C224.691 166.108 219.32 164.188 213.656 162.625C207.992 160.997 203.37 160.184 199.789 160.184C193.539 160.184 190.414 161.714 190.414 164.773C190.414 166.661 191.488 168.289 193.637 169.656C195.85 170.958 202.165 173.66 212.582 177.762C220.329 180.952 226.091 184.077 229.867 187.137C233.708 190.197 236.508 193.81 238.266 197.977C240.089 202.078 241 207.091 241 213.016Z" fill="url(#paint1_linear_193_128)"/>
<path d="M315.609 248.953C297.185 248.953 282.862 244.07 272.641 234.305C262.484 224.474 257.406 210.509 257.406 192.41C257.406 173.725 262.126 159.402 271.566 149.441C281.007 139.415 294.483 134.402 311.996 134.402C328.663 134.402 341.521 138.764 350.57 147.488C359.685 156.147 364.242 168.647 364.242 184.988V201.98H295.98C296.241 208.165 298.487 213.016 302.719 216.531C307.016 220.047 312.842 221.805 320.199 221.805C326.905 221.805 333.057 221.186 338.656 219.949C344.32 218.647 350.44 216.466 357.016 213.406V240.848C351.026 243.908 344.841 246.023 338.461 247.195C332.081 248.367 324.464 248.953 315.609 248.953ZM313.363 160.379C308.871 160.379 305.095 161.811 302.035 164.676C299.04 167.475 297.283 171.902 296.762 177.957H329.574C329.444 172.618 327.914 168.354 324.984 165.164C322.12 161.974 318.246 160.379 313.363 160.379Z" fill="url(#paint2_linear_193_128)"/>
<path d="M452.621 134.402C455.941 134.402 459.099 134.663 462.094 135.184L464.242 135.574L460.824 171.609C457.699 170.828 453.37 170.438 447.836 170.438C439.503 170.438 433.448 172.358 429.672 176.199C425.896 179.975 424.008 185.444 424.008 192.605V247H385.824V136.355H414.242L420.199 154.031H422.055C425.245 148.172 429.672 143.452 435.336 139.871C441.065 136.225 446.827 134.402 452.621 134.402Z" fill="url(#paint3_linear_193_128)"/>
</g>
<defs>
<filter id="filter0_d_193_128" x="0.648438" y="104.227" width="480.594" height="166.727" filterUnits="userSpaceOnUse" color-interpolation-filters="sRGB">
<feFlood flood-opacity="0" result="BackgroundImageFix"/>
<feColorMatrix in="SourceAlpha" type="matrix" values="0 0 0 0 0 0 0 0 0 0 0 0 0 0 0 0 0 0 127 0" result="hardAlpha"/>
<feOffset dx="6" dy="11"/>
<feGaussianBlur stdDeviation="5.5"/>
<feComposite in2="hardAlpha" operator="out"/>
<feColorMatrix type="matrix" values="0 0 0 0 0.8 0 0 0 0 0.8 0 0 0 0 0.8 0 0 0 1 0"/>
<feBlend mode="normal" in2="BackgroundImageFix" result="effect1_dropShadow_193_128"/>
<feBlend mode="normal" in="SourceGraphic" in2="effect1_dropShadow_193_128" result="shape"/>
</filter>
<linearGradient id="paint0_linear_193_128" x1="5.64844" y1="176.59" x2="464.242" y2="176.59" gradientUnits="userSpaceOnUse">
<stop stop-color="#C301C6"/>
<stop offset="1" stop-color="#3382B4"/>
</linearGradient>
<linearGradient id="paint1_linear_193_128" x1="5.64844" y1="176.59" x2="464.242" y2="176.59" gradientUnits="userSpaceOnUse">
<stop stop-color="#C301C6"/>
<stop offset="1" stop-color="#3382B4"/>
</linearGradient>
<linearGradient id="paint2_linear_193_128" x1="5.64844" y1="176.59" x2="464.242" y2="176.59" gradientUnits="userSpaceOnUse">
<stop stop-color="#C301C6"/>
<stop offset="1" stop-color="#3382B4"/>
</linearGradient>
<linearGradient id="paint3_linear_193_128" x1="5.64844" y1="176.59" x2="464.242" y2="176.59" gradientUnits="userSpaceOnUse">
<stop stop-color="#C301C6"/>
<stop offset="1" stop-color="#3382B4"/>
</linearGradient>
</defs>
</svg>
