<svg width="491" height="353" viewBox="0 0 491 353" fill="none" xmlns="http://www.w3.org/2000/svg">
<path d="M37.0605 49H10.7832V4.74023H37.0605V14.3369H22.7412V21.2998H36.001V30.8965H22.7412V39.252H37.0605V49Z" fill="#1B2534"/>
<path d="M51.3799 31.502L40.9053 14.7002H54.3467L59.5537 24.3271L64.8818 14.7002H78.3535L67.6064 31.502L78.7773 49H65.3359L59.5537 38.5859L53.8018 49H40.3301L51.3799 31.502Z" fill="#1B2534"/>
<path d="M103.753 49.6055C102.017 49.6055 100.463 49.3229 99.0908 48.7578C97.7184 48.1725 96.3561 47.1331 95.0039 45.6396H94.459C94.8223 48.0413 95.0039 49.5348 95.0039 50.1201V63.8945H83.167V14.7002H92.7939L94.459 19.0596H95.0039C97.2038 15.7497 100.241 14.0947 104.116 14.0947C107.91 14.0947 110.887 15.6689 113.047 18.8174C115.206 21.9658 116.286 26.2848 116.286 31.7744C116.286 37.3044 115.156 41.6637 112.896 44.8525C110.655 48.0212 107.608 49.6055 103.753 49.6055ZM99.7871 23.3887C98.0514 23.3887 96.8304 24.0143 96.124 25.2656C95.4378 26.4967 95.0645 28.3333 95.0039 30.7754V31.7139C95.0039 34.6605 95.3975 36.7897 96.1846 38.1016C96.9717 39.4134 98.2129 40.0693 99.9082 40.0693C101.422 40.0693 102.522 39.4235 103.208 38.1318C103.894 36.82 104.237 34.6605 104.237 31.6533C104.237 28.7067 103.894 26.5977 103.208 25.3262C102.522 24.0345 101.382 23.3887 99.7871 23.3887Z" fill="#1B2534"/>
<path d="M139.627 49.6055C133.915 49.6055 129.475 48.0918 126.307 45.0645C123.158 42.0169 121.584 37.6878 121.584 32.0771C121.584 26.2848 123.047 21.8447 125.974 18.7568C128.9 15.6488 133.078 14.0947 138.507 14.0947C143.674 14.0947 147.66 15.4469 150.465 18.1514C153.29 20.8356 154.703 24.7106 154.703 29.7764V35.0439H133.542C133.623 36.9613 134.319 38.4648 135.631 39.5547C136.963 40.6445 138.769 41.1895 141.05 41.1895C143.129 41.1895 145.036 40.9977 146.771 40.6143C148.527 40.2106 150.424 39.5345 152.463 38.5859V47.0928C150.606 48.0413 148.689 48.6973 146.711 49.0605C144.733 49.4238 142.372 49.6055 139.627 49.6055ZM138.931 22.1475C137.538 22.1475 136.368 22.5915 135.419 23.4795C134.491 24.3473 133.946 25.7197 133.784 27.5967H143.956C143.916 25.9417 143.441 24.6198 142.533 23.6309C141.645 22.6419 140.444 22.1475 138.931 22.1475Z" fill="#1B2534"/>
<path d="M182.101 14.0947C183.13 14.0947 184.109 14.1755 185.037 14.3369L185.703 14.458L184.644 25.6289C183.675 25.3867 182.333 25.2656 180.617 25.2656C178.034 25.2656 176.157 25.861 174.986 27.0518C173.816 28.2223 173.23 29.9176 173.23 32.1377V49H161.394V14.7002H170.203L172.05 20.1797H172.625C173.614 18.3633 174.986 16.9001 176.742 15.79C178.518 14.6598 180.304 14.0947 182.101 14.0947Z" fill="#1B2534"/>
<path d="M202.414 49H190.577V14.7002H202.414V49ZM190.274 6.16309C190.274 4.38704 190.769 3.0651 191.758 2.19727C192.747 1.32943 194.341 0.895508 196.541 0.895508C198.741 0.895508 200.345 1.33952 201.354 2.22754C202.364 3.11556 202.868 4.42741 202.868 6.16309C202.868 9.63444 200.759 11.3701 196.541 11.3701C192.363 11.3701 190.274 9.63444 190.274 6.16309Z" fill="#1B2534"/>
<path d="M227.238 49.6055C221.527 49.6055 217.087 48.0918 213.918 45.0645C210.77 42.0169 209.195 37.6878 209.195 32.0771C209.195 26.2848 210.659 21.8447 213.585 18.7568C216.511 15.6488 220.689 14.0947 226.118 14.0947C231.285 14.0947 235.271 15.4469 238.076 18.1514C240.902 20.8356 242.314 24.7106 242.314 29.7764V35.0439H221.153C221.234 36.9613 221.93 38.4648 223.242 39.5547C224.574 40.6445 226.381 41.1895 228.661 41.1895C230.74 41.1895 232.647 40.9977 234.383 40.6143C236.139 40.2106 238.036 39.5345 240.074 38.5859V47.0928C238.217 48.0413 236.3 48.6973 234.322 49.0605C232.344 49.4238 229.983 49.6055 227.238 49.6055ZM226.542 22.1475C225.149 22.1475 223.979 22.5915 223.03 23.4795C222.102 24.3473 221.557 25.7197 221.396 27.5967H231.567C231.527 25.9417 231.053 24.6198 230.145 23.6309C229.257 22.6419 228.056 22.1475 226.542 22.1475Z" fill="#1B2534"/>
<path d="M270.65 49V30.291C270.65 28.0104 270.317 26.2949 269.651 25.1445C269.006 23.974 267.956 23.3887 266.503 23.3887C264.505 23.3887 263.062 24.1859 262.174 25.7803C261.286 27.3747 260.842 30.1094 260.842 33.9844V49H249.005V14.7002H257.936L259.419 18.9385H260.115C261.124 17.3239 262.517 16.113 264.293 15.3057C266.089 14.4984 268.148 14.0947 270.469 14.0947C274.263 14.0947 277.21 15.1947 279.309 17.3945C281.428 19.5944 282.487 22.6924 282.487 26.6885V49H270.65Z" fill="#1B2534"/>
<path d="M306.161 49.6055C300.55 49.6055 296.292 48.0918 293.386 45.0645C290.5 42.0371 289.057 37.6878 289.057 32.0166C289.057 26.3252 290.621 21.9154 293.749 18.7871C296.877 15.6589 301.327 14.0947 307.1 14.0947C311.076 14.0947 314.819 14.9626 318.331 16.6982L314.85 25.4473C313.417 24.8216 312.095 24.3271 310.884 23.9639C309.673 23.5804 308.411 23.3887 307.1 23.3887C305.182 23.3887 303.699 24.1354 302.649 25.6289C301.6 27.1224 301.075 29.2314 301.075 31.9561C301.075 37.4456 303.104 40.1904 307.16 40.1904C310.632 40.1904 313.962 39.1813 317.15 37.1631V46.5781C314.103 48.5964 310.44 49.6055 306.161 49.6055Z" fill="#1B2534"/>
<path d="M335.859 49H324.022V14.7002H335.859V49ZM323.72 6.16309C323.72 4.38704 324.214 3.0651 325.203 2.19727C326.192 1.32943 327.786 0.895508 329.986 0.895508C332.186 0.895508 333.791 1.33952 334.8 2.22754C335.809 3.11556 336.313 4.42741 336.313 6.16309C336.313 9.63444 334.204 11.3701 329.986 11.3701C325.809 11.3701 323.72 9.63444 323.72 6.16309Z" fill="#1B2534"/>
<path d="M366.496 49L364.226 44.459H363.983C362.389 46.4368 360.764 47.7891 359.109 48.5156C357.454 49.2422 355.315 49.6055 352.691 49.6055C349.462 49.6055 346.919 48.6367 345.062 46.6992C343.206 44.7617 342.277 42.0371 342.277 38.5254C342.277 34.8724 343.549 32.1579 346.092 30.3818C348.635 28.5856 352.318 27.5765 357.142 27.3545L362.863 27.1729V26.6885C362.863 23.863 361.471 22.4502 358.686 22.4502C356.183 22.4502 353.004 23.2979 349.149 24.9932L345.729 17.1826C349.725 15.124 354.77 14.0947 360.865 14.0947C365.265 14.0947 368.666 15.1846 371.067 17.3643C373.489 19.5439 374.7 22.5915 374.7 26.5068V49H366.496ZM357.717 41.25C359.15 41.25 360.371 40.7959 361.38 39.8877C362.409 38.9795 362.924 37.7988 362.924 36.3457V33.6816L360.199 33.8027C356.304 33.944 354.356 35.377 354.356 38.1016C354.356 40.2005 355.477 41.25 357.717 41.25Z" fill="#1B2534"/>
<path d="M437.124 25.9316C437.124 33.3184 435.086 39.0098 431.009 43.0059C426.952 47.002 421.241 49 413.874 49H399.555V4.74023H414.873C421.977 4.74023 427.457 6.55664 431.312 10.1895C435.187 13.8223 437.124 19.0697 437.124 25.9316ZM424.712 26.3555C424.712 22.2988 423.905 19.2917 422.29 17.334C420.696 15.3763 418.264 14.3975 414.994 14.3975H411.513V39.1914H414.177C417.81 39.1914 420.474 38.1419 422.169 36.043C423.864 33.9238 424.712 30.6947 424.712 26.3555Z" fill="#1B2534"/>
<path d="M460.949 49.6055C455.238 49.6055 450.798 48.0918 447.629 45.0645C444.48 42.0169 442.906 37.6878 442.906 32.0771C442.906 26.2848 444.369 21.8447 447.296 18.7568C450.222 15.6488 454.4 14.0947 459.829 14.0947C464.996 14.0947 468.982 15.4469 471.787 18.1514C474.613 20.8356 476.025 24.7106 476.025 29.7764V35.0439H454.864C454.945 36.9613 455.641 38.4648 456.953 39.5547C458.285 40.6445 460.091 41.1895 462.372 41.1895C464.451 41.1895 466.358 40.9977 468.094 40.6143C469.85 40.2106 471.747 39.5345 473.785 38.5859V47.0928C471.928 48.0413 470.011 48.6973 468.033 49.0605C466.055 49.4238 463.694 49.6055 460.949 49.6055ZM460.253 22.1475C458.86 22.1475 457.69 22.5915 456.741 23.4795C455.813 24.3473 455.268 25.7197 455.106 27.5967H465.278C465.238 25.9417 464.764 24.6198 463.855 23.6309C462.967 22.6419 461.767 22.1475 460.253 22.1475Z" fill="#1B2534"/>
<path d="M50.8169 268L47.7583 256.36H27.5801L24.4365 268H6L26.2632 205.639H48.6504L69.1685 268H50.8169ZM44.2749 242.597L41.5986 232.401C40.9756 230.136 40.2109 227.205 39.3047 223.608C38.4268 220.011 37.8462 217.434 37.563 215.876C37.3081 217.321 36.7983 219.7 36.0337 223.013C35.2974 226.327 33.6406 232.854 31.0635 242.597H44.2749Z" fill="#1B2534"/>
<path d="M96.8657 268.85C88.9927 268.85 83.0171 266.726 78.939 262.478C74.8892 258.229 72.8643 252.126 72.8643 244.168C72.8643 236.182 75.0591 229.994 79.4487 225.604C83.8384 221.215 90.083 219.02 98.1826 219.02C103.762 219.02 109.015 220.238 113.943 222.673L109.058 234.95C107.047 234.072 105.192 233.378 103.493 232.869C101.793 232.331 100.023 232.062 98.1826 232.062C95.4922 232.062 93.4106 233.109 91.938 235.205C90.4653 237.301 89.729 240.26 89.729 244.083C89.729 251.787 92.5752 255.638 98.2676 255.638C103.139 255.638 107.812 254.222 112.286 251.39V264.602C108.01 267.434 102.87 268.85 96.8657 268.85Z" fill="#1B2534"/>
<path d="M143.764 268.85C135.891 268.85 129.916 266.726 125.837 262.478C121.788 258.229 119.763 252.126 119.763 244.168C119.763 236.182 121.958 229.994 126.347 225.604C130.737 221.215 136.981 219.02 145.081 219.02C150.66 219.02 155.914 220.238 160.841 222.673L155.956 234.95C153.945 234.072 152.09 233.378 150.391 232.869C148.692 232.331 146.922 232.062 145.081 232.062C142.391 232.062 140.309 233.109 138.836 235.205C137.364 237.301 136.627 240.26 136.627 244.083C136.627 251.787 139.474 255.638 145.166 255.638C150.037 255.638 154.71 254.222 159.185 251.39V264.602C154.908 267.434 149.768 268.85 143.764 268.85Z" fill="#1B2534"/>
<path d="M191.979 268.85C183.965 268.85 177.734 266.726 173.288 262.478C168.87 258.201 166.661 252.126 166.661 244.253C166.661 236.125 168.714 229.895 172.821 225.562C176.927 221.201 182.79 219.02 190.408 219.02C197.658 219.02 203.251 220.917 207.188 224.712C211.152 228.479 213.135 233.917 213.135 241.025V248.417H183.441C183.554 251.107 184.531 253.217 186.372 254.746C188.241 256.275 190.776 257.04 193.976 257.04C196.893 257.04 199.569 256.771 202.005 256.233C204.469 255.667 207.131 254.718 209.991 253.387V265.324C207.386 266.655 204.695 267.575 201.92 268.085C199.145 268.595 195.831 268.85 191.979 268.85ZM191.002 230.32C189.048 230.32 187.406 230.943 186.075 232.189C184.772 233.407 184.007 235.333 183.781 237.966H198.054C197.998 235.644 197.332 233.789 196.058 232.401C194.812 231.014 193.126 230.32 191.002 230.32Z" fill="#1B2534"/>
<path d="M259.693 253.217C259.693 258.371 257.938 262.265 254.426 264.899C250.914 267.533 245.873 268.85 239.303 268.85C235.734 268.85 232.633 268.651 230 268.255C227.366 267.887 224.675 267.193 221.928 266.173V252.877C224.505 254.01 227.323 254.944 230.382 255.681C233.469 256.417 236.216 256.785 238.623 256.785C242.22 256.785 244.018 255.964 244.018 254.321C244.018 253.472 243.508 252.721 242.489 252.07C241.498 251.39 238.581 250.087 233.738 248.162C229.32 246.349 226.233 244.296 224.477 242.002C222.721 239.68 221.843 236.749 221.843 233.208C221.843 228.734 223.571 225.25 227.026 222.758C230.481 220.266 235.366 219.02 241.682 219.02C244.854 219.02 247.827 219.374 250.603 220.082C253.406 220.762 256.309 221.767 259.311 223.098L254.808 233.803C252.599 232.812 250.263 231.977 247.799 231.297C245.335 230.589 243.324 230.235 241.767 230.235C239.048 230.235 237.688 230.9 237.688 232.231C237.688 233.053 238.156 233.761 239.09 234.355C240.053 234.922 242.8 236.097 247.332 237.881C250.702 239.269 253.208 240.628 254.851 241.959C256.521 243.291 257.739 244.862 258.504 246.675C259.297 248.459 259.693 250.64 259.693 253.217Z" fill="#1B2534"/>
<path d="M306.082 253.217C306.082 258.371 304.326 262.265 300.814 264.899C297.303 267.533 292.262 268.85 285.691 268.85C282.123 268.85 279.022 268.651 276.388 268.255C273.754 267.887 271.064 267.193 268.317 266.173V252.877C270.894 254.01 273.712 254.944 276.771 255.681C279.857 256.417 282.604 256.785 285.012 256.785C288.608 256.785 290.407 255.964 290.407 254.321C290.407 253.472 289.897 252.721 288.877 252.07C287.886 251.39 284.969 250.087 280.126 248.162C275.708 246.349 272.622 244.296 270.866 242.002C269.11 239.68 268.232 236.749 268.232 233.208C268.232 228.734 269.959 225.25 273.415 222.758C276.87 220.266 281.755 219.02 288.07 219.02C291.242 219.02 294.216 219.374 296.991 220.082C299.795 220.762 302.698 221.767 305.7 223.098L301.197 233.803C298.988 232.812 296.651 231.977 294.188 231.297C291.724 230.589 289.713 230.235 288.155 230.235C285.437 230.235 284.077 230.9 284.077 232.231C284.077 233.053 284.544 233.761 285.479 234.355C286.442 234.922 289.189 236.097 293.72 237.881C297.09 239.269 299.597 240.628 301.239 241.959C302.91 243.291 304.128 244.862 304.893 246.675C305.686 248.459 306.082 250.64 306.082 253.217Z" fill="#1B2534"/>
<path d="M331.995 268H315.385V219.87H331.995V268ZM314.96 207.89C314.96 205.398 315.654 203.543 317.042 202.325C318.43 201.107 320.667 200.499 323.754 200.499C326.841 200.499 329.092 201.122 330.508 202.368C331.924 203.614 332.632 205.455 332.632 207.89C332.632 212.761 329.673 215.197 323.754 215.197C317.892 215.197 314.96 212.761 314.96 207.89Z" fill="#1B2534"/>
<path d="M372.989 219.02C378.228 219.02 382.377 221.215 385.436 225.604C388.522 229.994 390.066 236.069 390.066 243.829C390.066 251.645 388.508 257.776 385.393 262.223C382.306 266.641 378.001 268.85 372.479 268.85C370.695 268.85 369.109 268.651 367.721 268.255C366.333 267.887 365.087 267.363 363.983 266.683C362.907 266.003 361.646 264.871 360.202 263.285H359.183L356.549 268H343.592V201.9H360.202V216.854C360.202 218.638 360.004 221.71 359.607 226.072H360.202C361.816 223.58 363.671 221.781 365.767 220.677C367.891 219.572 370.298 219.02 372.989 219.02ZM366.914 232.062C364.592 232.062 362.893 232.869 361.816 234.483C360.74 236.097 360.202 238.632 360.202 242.087V244.423C360.202 248.36 360.74 251.192 361.816 252.919C362.893 254.619 364.648 255.468 367.084 255.468C369.038 255.468 370.539 254.477 371.587 252.495C372.635 250.484 373.159 247.539 373.159 243.659C373.159 235.927 371.077 232.062 366.914 232.062Z" fill="#1B2534"/>
<path d="M416.191 268H399.582V201.9H416.191V268Z" fill="#1B2534"/>
<path d="M450.94 268.85C442.926 268.85 436.695 266.726 432.249 262.478C427.831 258.201 425.622 252.126 425.622 244.253C425.622 236.125 427.675 229.895 431.782 225.562C435.888 221.201 441.75 219.02 449.369 219.02C456.619 219.02 462.212 220.917 466.148 224.712C470.113 228.479 472.096 233.917 472.096 241.025V248.417H442.402C442.515 251.107 443.492 253.217 445.333 254.746C447.202 256.275 449.737 257.04 452.937 257.04C455.854 257.04 458.53 256.771 460.966 256.233C463.43 255.667 466.092 254.718 468.952 253.387V265.324C466.347 266.655 463.656 267.575 460.881 268.085C458.105 268.595 454.792 268.85 450.94 268.85ZM449.963 230.32C448.009 230.32 446.367 230.943 445.036 232.189C443.733 233.407 442.968 235.333 442.742 237.966H457.015C456.958 235.644 456.293 233.789 455.019 232.401C453.772 231.014 452.087 230.32 449.963 230.32Z" fill="#1B2534"/>
<path d="M36.5596 351H10.7061V307.454H36.5596V316.896H22.4712V323.747H35.5171V333.188H22.4712V341.409H36.5596V351Z" fill="#1B2534"/>
<path d="M64.7959 351V332.593C64.7959 330.349 64.4683 328.661 63.813 327.529C63.1776 326.378 62.145 325.802 60.7153 325.802C58.7495 325.802 57.3298 326.586 56.4561 328.155C55.5824 329.723 55.1455 332.414 55.1455 336.227V351H43.4995V317.253H52.2861L53.7456 321.423H54.4307C55.4235 319.835 56.7936 318.643 58.541 317.849C60.3083 317.055 62.3337 316.658 64.6172 316.658C68.3503 316.658 71.2493 317.74 73.3145 319.904C75.3994 322.069 76.4419 325.117 76.4419 329.048V351H64.7959Z" fill="#1B2534"/>
<path d="M100.896 351V307.454H112.661V341.499H129.43V351H100.896Z" fill="#1B2534"/>
<path d="M157.726 351L155.492 346.532H155.253C153.685 348.478 152.086 349.809 150.458 350.523C148.83 351.238 146.725 351.596 144.144 351.596C140.966 351.596 138.465 350.643 136.638 348.736C134.811 346.83 133.897 344.149 133.897 340.694C133.897 337.1 135.148 334.43 137.65 332.682C140.152 330.915 143.776 329.922 148.522 329.704L154.151 329.525V329.048C154.151 326.268 152.781 324.878 150.041 324.878C147.579 324.878 144.451 325.712 140.659 327.38L137.293 319.696C141.225 317.67 146.189 316.658 152.186 316.658C156.514 316.658 159.86 317.73 162.223 319.875C164.606 322.019 165.797 325.017 165.797 328.87V351H157.726ZM149.088 343.375C150.498 343.375 151.699 342.928 152.692 342.035C153.705 341.141 154.211 339.979 154.211 338.55V335.929L151.53 336.048C147.698 336.187 145.782 337.597 145.782 340.277C145.782 342.342 146.884 343.375 149.088 343.375Z" fill="#1B2534"/>
<path d="M191 351.673V308.127H202.825V351.673H191Z" fill="#0970B9"/>
<path d="M232.878 351.673V333.266C232.878 331.022 232.55 329.334 231.895 328.203C231.26 327.051 230.227 326.475 228.797 326.475C226.832 326.475 225.412 327.259 224.538 328.828C223.664 330.397 223.228 333.087 223.228 336.9V351.673H211.582V317.927H220.368L221.828 322.097H222.513C223.506 320.508 224.876 319.317 226.623 318.522C228.39 317.728 230.416 317.331 232.699 317.331C236.432 317.331 239.331 318.413 241.396 320.578C243.481 322.742 244.524 325.79 244.524 329.722V351.673H232.878Z" fill="#0970B9"/>
<path d="M268.978 343.065C270.546 343.065 272.423 342.678 274.607 341.904V350.393C273.038 351.068 271.539 351.544 270.109 351.822C268.7 352.12 267.042 352.269 265.135 352.269C261.223 352.269 258.404 351.316 256.676 349.41C254.949 347.484 254.085 344.535 254.085 340.563V326.654H250.004V321.918L255.187 318.254L258.195 311.166H265.82V317.927H274.101V326.654H265.82V339.789C265.82 341.973 266.873 343.065 268.978 343.065Z" fill="#0970B9"/>
<path d="M296.797 352.269C291.177 352.269 286.809 350.78 283.691 347.801C280.594 344.803 279.045 340.544 279.045 335.023C279.045 329.325 280.485 324.956 283.364 321.918C286.243 318.86 290.353 317.331 295.695 317.331C300.778 317.331 304.7 318.661 307.46 321.322C310.24 323.963 311.63 327.776 311.63 332.76V337.942H290.81C290.889 339.829 291.575 341.308 292.865 342.38C294.176 343.453 295.953 343.989 298.197 343.989C300.242 343.989 302.118 343.8 303.826 343.423C305.554 343.026 307.42 342.361 309.426 341.427V349.797C307.599 350.73 305.713 351.375 303.767 351.733C301.821 352.09 299.497 352.269 296.797 352.269ZM296.112 325.254C294.742 325.254 293.59 325.691 292.657 326.564C291.743 327.418 291.207 328.769 291.048 330.615H301.056C301.016 328.987 300.55 327.686 299.656 326.713C298.783 325.74 297.601 325.254 296.112 325.254Z" fill="#0970B9"/>
<path d="M338.585 317.331C339.598 317.331 340.561 317.41 341.475 317.569L342.13 317.688L341.087 328.679C340.134 328.441 338.814 328.322 337.126 328.322C334.584 328.322 332.738 328.908 331.586 330.079C330.434 331.231 329.858 332.899 329.858 335.083V351.673H318.212V317.927H326.88L328.697 323.318H329.263C330.236 321.531 331.586 320.091 333.313 318.999C335.061 317.887 336.818 317.331 338.585 317.331Z" fill="#0970B9"/>
<path d="M367.477 326.654H360.299V351.673H348.653V326.654H344.185V320.935L348.891 318.076V317.51C348.891 313.062 349.795 309.865 351.602 307.919C353.428 305.973 356.347 305 360.358 305C361.907 305 363.367 305.119 364.737 305.357C366.127 305.596 367.735 306.013 369.562 306.608L367.06 314.144C365.63 313.747 364.23 313.548 362.86 313.548C361.967 313.548 361.312 313.826 360.895 314.382C360.497 314.918 360.299 315.802 360.299 317.033V317.927H367.477V326.654Z" fill="#0970B9"/>
<path d="M394.075 351.673L391.841 347.206H391.603C390.034 349.152 388.436 350.482 386.808 351.197C385.179 351.912 383.075 352.269 380.493 352.269C377.316 352.269 374.814 351.316 372.987 349.41C371.16 347.503 370.247 344.823 370.247 341.368C370.247 337.774 371.498 335.103 374 333.355C376.502 331.588 380.126 330.595 384.872 330.377L390.501 330.198V329.722C390.501 326.942 389.131 325.552 386.391 325.552C383.928 325.552 380.801 326.386 377.008 328.054L373.643 320.369C377.574 318.344 382.538 317.331 388.535 317.331C392.864 317.331 396.21 318.403 398.573 320.548C400.956 322.692 402.147 325.691 402.147 329.543V351.673H394.075ZM385.438 344.048C386.847 344.048 388.049 343.602 389.042 342.708C390.054 341.814 390.561 340.653 390.561 339.223V336.602L387.88 336.721C384.048 336.86 382.131 338.27 382.131 340.951C382.131 343.016 383.233 344.048 385.438 344.048Z" fill="#0970B9"/>
<path d="M425.439 352.269C419.919 352.269 415.729 350.78 412.87 347.801C410.03 344.823 408.61 340.544 408.61 334.964C408.61 329.364 410.149 325.026 413.227 321.948C416.305 318.87 420.683 317.331 426.362 317.331C430.274 317.331 433.958 318.185 437.413 319.893L433.987 328.5C432.577 327.885 431.277 327.398 430.085 327.041C428.894 326.664 427.653 326.475 426.362 326.475C424.476 326.475 423.016 327.21 421.984 328.679C420.951 330.149 420.435 332.224 420.435 334.904C420.435 340.305 422.431 343.006 426.422 343.006C429.837 343.006 433.114 342.013 436.251 340.027V349.291C433.253 351.276 429.649 352.269 425.439 352.269Z" fill="#0970B9"/>
<path d="M459.245 352.269C453.626 352.269 449.257 350.78 446.14 347.801C443.042 344.803 441.493 340.544 441.493 335.023C441.493 329.325 442.933 324.956 445.812 321.918C448.691 318.86 452.802 317.331 458.143 317.331C463.226 317.331 467.148 318.661 469.908 321.322C472.688 323.963 474.078 327.776 474.078 332.76V337.942H453.258C453.338 339.829 454.023 341.308 455.313 342.38C456.624 343.453 458.401 343.989 460.645 343.989C462.69 343.989 464.567 343.8 466.274 343.423C468.002 343.026 469.868 342.361 471.874 341.427V349.797C470.047 350.73 468.161 351.375 466.215 351.733C464.269 352.09 461.946 352.269 459.245 352.269ZM458.56 325.254C457.19 325.254 456.038 325.691 455.105 326.564C454.192 327.418 453.655 328.769 453.497 330.615H463.504C463.465 328.987 462.998 327.686 462.104 326.713C461.231 325.74 460.049 325.254 458.56 325.254Z" fill="#0970B9"/>
<g filter="url(#filter0_d_193_149)">
<path d="M79.0898 82.3359V133.898C79.0898 145.109 75.9062 153.801 69.5391 159.973C63.2109 166.105 54.0703 169.172 42.1172 169.172C30.4375 169.172 21.4531 166.184 15.1641 160.207C8.91406 154.23 5.78906 145.637 5.78906 134.426V82.3359H29.0508V132.609C29.0508 138.664 30.1836 143.059 32.4492 145.793C34.7148 148.527 38.0547 149.895 42.4688 149.895C47.1953 149.895 50.6133 148.547 52.7227 145.852C54.8711 143.117 55.9453 138.664 55.9453 132.492V82.3359H79.0898Z" fill="url(#paint0_linear_193_149)"/>
<path d="M147 147.609C147 154.719 144.578 160.09 139.734 163.723C134.891 167.355 127.938 169.172 118.875 169.172C113.953 169.172 109.676 168.898 106.043 168.352C102.41 167.844 98.6992 166.887 94.9102 165.48V147.141C98.4648 148.703 102.352 149.992 106.57 151.008C110.828 152.023 114.617 152.531 117.938 152.531C122.898 152.531 125.379 151.398 125.379 149.133C125.379 147.961 124.676 146.926 123.27 146.027C121.902 145.09 117.879 143.293 111.199 140.637C105.105 138.137 100.848 135.305 98.4258 132.141C96.0039 128.938 94.793 124.895 94.793 120.012C94.793 113.84 97.1758 109.035 101.941 105.598C106.707 102.16 113.445 100.441 122.156 100.441C126.531 100.441 130.633 100.93 134.461 101.906C138.328 102.844 142.332 104.23 146.473 106.066L140.262 120.832C137.215 119.465 133.992 118.312 130.594 117.375C127.195 116.398 124.422 115.91 122.273 115.91C118.523 115.91 116.648 116.828 116.648 118.664C116.648 119.797 117.293 120.773 118.582 121.594C119.91 122.375 123.699 123.996 129.949 126.457C134.598 128.371 138.055 130.246 140.32 132.082C142.625 133.918 144.305 136.086 145.359 138.586C146.453 141.047 147 144.055 147 147.609Z" fill="url(#paint1_linear_193_149)"/>
<path d="M207 168L204.129 159.738H202.781C200.867 162.785 198.191 165.129 194.754 166.77C191.355 168.371 187.352 169.172 182.742 169.172C175.438 169.172 169.754 167.062 165.691 162.844C161.629 158.586 159.598 152.59 159.598 144.855V101.613H182.508V137.883C182.508 142.219 183.113 145.5 184.324 147.727C185.574 149.953 187.605 151.066 190.418 151.066C194.363 151.066 197.176 149.523 198.855 146.438C200.535 143.312 201.375 138.059 201.375 130.676V101.613H224.285V168H207Z" fill="url(#paint2_linear_193_149)"/>
<path d="M283.406 168L279.012 159.211H278.543C275.457 163.039 272.312 165.656 269.109 167.062C265.906 168.469 261.766 169.172 256.688 169.172C250.438 169.172 245.516 167.297 241.922 163.547C238.328 159.797 236.531 154.523 236.531 147.727C236.531 140.656 238.992 135.402 243.914 131.965C248.836 128.488 255.965 126.535 265.301 126.105L276.375 125.754V124.816C276.375 119.348 273.68 116.613 268.289 116.613C263.445 116.613 257.293 118.254 249.832 121.535L243.211 106.418C250.945 102.434 260.711 100.441 272.508 100.441C281.023 100.441 287.605 102.551 292.254 106.77C296.941 110.988 299.285 116.887 299.285 124.465V168H283.406ZM266.414 153C269.188 153 271.551 152.121 273.504 150.363C275.496 148.605 276.492 146.32 276.492 143.508V138.352L271.219 138.586C263.68 138.859 259.91 141.633 259.91 146.906C259.91 150.969 262.078 153 266.414 153Z" fill="url(#paint3_linear_193_149)"/>
<path d="M354.949 100.441C356.941 100.441 358.836 100.598 360.633 100.91L361.922 101.145L359.871 122.766C357.996 122.297 355.398 122.062 352.078 122.062C347.078 122.062 343.445 123.215 341.18 125.52C338.914 127.785 337.781 131.066 337.781 135.363V168H314.871V101.613H331.922L335.496 112.219H336.609C338.523 108.703 341.18 105.871 344.578 103.723C348.016 101.535 351.473 100.441 354.949 100.441Z" fill="url(#paint4_linear_193_149)"/>
<path d="M394.266 168H371.355V101.613H394.266V168ZM370.77 85.0898C370.77 81.6523 371.727 79.0938 373.641 77.4141C375.555 75.7344 378.641 74.8945 382.898 74.8945C387.156 74.8945 390.262 75.7539 392.215 77.4727C394.168 79.1914 395.145 81.7305 395.145 85.0898C395.145 91.8086 391.062 95.168 382.898 95.168C374.812 95.168 370.77 91.8086 370.77 85.0898Z" fill="url(#paint5_linear_193_149)"/>
<path d="M473.66 134.66C473.66 145.52 470.73 153.996 464.871 160.09C459.051 166.145 450.887 169.172 440.379 169.172C430.301 169.172 422.273 166.066 416.297 159.855C410.359 153.645 407.391 145.246 407.391 134.66C407.391 123.84 410.301 115.441 416.121 109.465C421.98 103.449 430.184 100.441 440.73 100.441C447.254 100.441 453.016 101.828 458.016 104.602C463.016 107.375 466.863 111.359 469.559 116.555C472.293 121.711 473.66 127.746 473.66 134.66ZM430.652 134.66C430.652 140.363 431.414 144.719 432.938 147.727C434.461 150.695 437.02 152.18 440.613 152.18C444.168 152.18 446.668 150.695 448.113 147.727C449.598 144.719 450.34 140.363 450.34 134.66C450.34 128.996 449.598 124.719 448.113 121.828C446.629 118.938 444.09 117.492 440.496 117.492C436.98 117.492 434.461 118.938 432.938 121.828C431.414 124.68 430.652 128.957 430.652 134.66Z" fill="url(#paint6_linear_193_149)"/>
</g>
<defs>
<filter id="filter0_d_193_149" x="0.789062" y="74.8945" width="489.871" height="116.277" filterUnits="userSpaceOnUse" color-interpolation-filters="sRGB">
<feFlood flood-opacity="0" result="BackgroundImageFix"/>
<feColorMatrix in="SourceAlpha" type="matrix" values="0 0 0 0 0 0 0 0 0 0 0 0 0 0 0 0 0 0 127 0" result="hardAlpha"/>
<feOffset dx="6" dy="11"/>
<feGaussianBlur stdDeviation="5.5"/>
<feComposite in2="hardAlpha" operator="out"/>
<feColorMatrix type="matrix" values="0 0 0 0 0.8 0 0 0 0 0.8 0 0 0 0 0.8 0 0 0 1 0"/>
<feBlend mode="normal" in2="BackgroundImageFix" result="effect1_dropShadow_193_149"/>
<feBlend mode="normal" in="SourceGraphic" in2="effect1_dropShadow_193_149" result="shape"/>
</filter>
<linearGradient id="paint0_linear_193_149" x1="5.78906" y1="122.033" x2="473.66" y2="122.033" gradientUnits="userSpaceOnUse">
<stop stop-color="#C301C6"/>
<stop offset="1" stop-color="#3382B4"/>
</linearGradient>
<linearGradient id="paint1_linear_193_149" x1="5.78906" y1="122.033" x2="473.66" y2="122.033" gradientUnits="userSpaceOnUse">
<stop stop-color="#C301C6"/>
<stop offset="1" stop-color="#3382B4"/>
</linearGradient>
<linearGradient id="paint2_linear_193_149" x1="5.78906" y1="122.033" x2="473.66" y2="122.033" gradientUnits="userSpaceOnUse">
<stop stop-color="#C301C6"/>
<stop offset="1" stop-color="#3382B4"/>
</linearGradient>
<linearGradient id="paint3_linear_193_149" x1="5.78906" y1="122.033" x2="473.66" y2="122.033" gradientUnits="userSpaceOnUse">
<stop stop-color="#C301C6"/>
<stop offset="1" stop-color="#3382B4"/>
</linearGradient>
<linearGradient id="paint4_linear_193_149" x1="5.78906" y1="122.033" x2="473.66" y2="122.033" gradientUnits="userSpaceOnUse">
<stop stop-color="#C301C6"/>
<stop offset="1" stop-color="#3382B4"/>
</linearGradient>
<linearGradient id="paint5_linear_193_149" x1="5.78906" y1="122.033" x2="473.66" y2="122.033" gradientUnits="userSpaceOnUse">
<stop stop-color="#C301C6"/>
<stop offset="1" stop-color="#3382B4"/>
</linearGradient>
<linearGradient id="paint6_linear_193_149" x1="5.78906" y1="122.033" x2="473.66" y2="122.033" gradientUnits="userSpaceOnUse">
<stop stop-color="#C301C6"/>
<stop offset="1" stop-color="#3382B4"/>
</linearGradient>
</defs>
</svg>
