<svg width="344" height="227" viewBox="0 0 344 227" fill="none" xmlns="http://www.w3.org/2000/svg">
<g id="gab-watercolors">
<path id="cara-26" d="M109.307 12.2749L120.965 13.7302C125.356 22.7142 132.847 26.7987 143.436 25.9838C151.305 30.272 159.145 33.0662 166.956 34.3663C164.061 43.4085 163.973 52.3149 166.694 61.0854C167.481 63.705 167.102 67.4596 163.575 67.0521C163.398 67.0283 163.228 66.9643 163.077 66.8643C162.926 66.7644 162.797 66.6306 162.698 66.4715C162.599 66.3125 162.533 66.1319 162.503 65.9411C162.473 65.7504 162.481 65.5538 162.526 65.364C165.848 51.1409 160.738 41.6136 147.196 36.7821L141.367 34.1043C141.911 33.7162 142.192 33.2214 142.212 32.6199C142.228 32.2587 142.076 31.8794 141.776 31.5386C141.477 31.1978 141.047 30.9135 140.551 30.728C128.893 26.3427 116.788 24.0628 104.236 23.8882C98.9897 23.8299 94.9968 21.4724 89.605 21.0067C89.08 20.9629 88.5926 20.8113 88.2074 20.5722C87.8222 20.3331 87.5575 20.0177 87.4483 19.6678C87.1374 18.6588 87.3803 17.6498 88.1769 16.6408C95.5992 16.9707 102.643 15.5154 109.307 12.2749Z" fill="#5CB3AD"/>
<path id="cara-72" d="M120.965 13.7302C130.408 14.487 137.899 18.5715 143.436 25.9838C132.847 26.7987 125.357 22.7142 120.965 13.7302Z" fill="#95CFCD"/>
<path id="cara-7" d="M309.067 33.9879L308.106 36.8985C303.85 37.3254 301.461 39.5471 300.936 43.5637L292.192 38.965C293.669 31.6885 291.6 28.254 285.984 28.6615C276.163 29.3601 270.334 27.6719 261.707 24.5285C254.11 22.4717 246.746 23.0538 239.615 26.2748C238.74 26.6823 237.817 26.8764 236.846 26.857C231.503 26.7988 226.509 28.2346 221.865 31.1646C221.088 31.6497 221.176 31.902 222.128 31.9214L245.735 32.2997C235.301 35.4044 224.916 37.694 214.579 39.1687C213.394 39.3434 210.305 39.2463 205.311 38.8777C202.26 38.6254 199.103 39.1396 195.839 40.4203C197.218 36.5007 196.062 34.8029 192.371 35.3268C197.422 33.2117 202.737 32.0572 208.313 31.8632C209.316 31.8259 210.287 31.4582 211.082 30.8154L224.488 20.1917C224.754 19.9821 225.148 19.8162 225.641 19.7056C226.134 19.595 226.715 19.5424 227.345 19.5514L260.133 20.0753C260.682 20.0934 261.186 20.1582 261.601 20.2645C262.017 20.3708 262.333 20.5155 262.523 20.6865C264.699 22.7433 267.283 23.5195 270.275 23.015C270.839 22.9148 271.351 22.7692 271.773 22.5883C272.196 22.4074 272.52 22.1955 272.724 21.9672C273.714 20.7641 274.909 19.8133 276.308 19.1148C276.879 18.8259 277.443 18.6291 277.938 18.5468C278.432 18.4645 278.837 18.4999 279.106 18.6491L292.047 26.1293C292.304 26.2757 292.522 26.6093 292.673 27.0868C292.823 27.5642 292.9 28.1635 292.892 28.8071C292.834 33.1147 304.696 31.4557 309.067 33.9879Z" fill="#77C5B4"/>
<path id="ojos-0" d="M141.367 34.1043L147.196 36.7821C144.942 37.2478 143.971 38.703 144.281 41.1479C117.857 31.0579 90.7031 28.1473 62.821 32.4162C57.5749 29.1369 51.9597 27.4682 45.9752 27.41C45.2049 27.4109 44.2491 27.7948 43.2939 28.4869C38.0477 32.2707 34.5795 37.2575 32.8891 43.4473C32.7892 43.8081 32.5844 44.1513 32.2909 44.4494C31.9974 44.7476 31.6234 44.9924 31.1987 45.1645C27.0601 46.8818 25.5445 49.2103 26.3023 53.9254C27.6041 62.0168 28.7991 70.1277 29.8871 78.2579C23.825 78.2773 21.3476 76.4922 22.4552 72.9024C23.4655 69.6232 22.834 66.6932 20.5607 64.1125C17.4908 60.6197 14.8483 59.6981 12.6333 61.3474C12.5067 61.4425 12.3605 61.5101 12.2071 61.5443C12.0536 61.5786 11.8975 61.5787 11.7517 61.5444C11.606 61.5102 11.475 61.4427 11.3697 61.3476C11.2644 61.2525 11.188 61.1326 11.1469 60.9981C9.95193 57.2144 1.15013 44.6406 12.1961 46.125C12.689 46.1893 13.1615 46.1783 13.5797 46.0928C13.998 46.0072 14.3515 45.8493 14.6151 45.6302L21.3768 40.0419C21.707 39.7738 21.9431 39.3347 22.0569 38.7773C22.1706 38.2198 22.1571 37.5675 22.018 36.8985C21.2602 33.2894 21.7362 29.9616 23.4461 26.9152C23.6341 26.588 23.9969 26.2922 24.4981 26.0572C24.9993 25.8223 25.6214 25.6565 26.3023 25.5763L61.7427 21.6179C67.2219 21.0164 71.4674 21.8799 74.4791 24.2083C79.3171 27.963 83.0768 25.9838 87.4777 26.1875C105.684 27.1189 123.647 29.7579 141.367 34.1043Z" fill="#3382B4"/>
<path id="pentes-22" d="M261.707 24.5285C262.328 25.5957 262.523 26.6629 262.289 27.7301C262.208 28.1063 261.964 28.4411 261.602 28.6754C261.239 28.9098 260.781 29.0285 260.308 29.0108C254.789 28.8944 249.932 29.9907 245.735 32.2998L222.128 31.9214C221.175 31.902 221.088 31.6497 221.865 31.1646C226.509 28.2346 231.503 26.7988 236.846 26.857C237.817 26.8764 238.74 26.6823 239.615 26.2748C246.745 23.0538 254.109 22.4717 261.707 24.5285Z" fill="#2D6976"/>
<path id="lentes-1" d="M261.707 24.5285C270.334 27.6719 276.163 29.3601 285.985 28.6615C291.6 28.254 293.67 31.6885 292.193 38.965L268.148 38.4702C254.741 37.5582 241.393 38.053 228.103 39.9546C211.286 42.3704 195.664 48.8028 200.269 69.6426V71.0979L198.9 72.1457C198.728 72.2739 198.427 72.2206 198.061 71.9973C197.696 71.774 197.295 71.3986 196.947 70.9523L191.846 64.3744C191.528 63.9655 191.302 63.4975 191.186 63.0043C191.07 62.511 191.067 62.0047 191.176 61.522L195.839 40.4203C199.104 39.1396 202.261 38.6254 205.311 38.8777C210.305 39.2464 213.394 39.3434 214.58 39.1687C224.916 37.694 235.302 35.4044 245.736 32.2998C249.933 29.9907 254.79 28.8944 260.308 29.0108C260.781 29.0285 261.24 28.9098 261.602 28.6755C261.965 28.4411 262.208 28.1063 262.29 27.7301C262.523 26.6629 262.329 25.5957 261.707 24.5285Z" fill="#399595"/>
<path id="lentes-0" d="M62.8209 32.4162C54.2328 33.7162 47.2574 37.7911 41.8947 44.6407C38.2613 52.2276 36.9692 60.319 38.0184 68.9149L40.9912 88.2994C45.1007 99.5052 50.3176 107.102 62.4711 110.624C99.6602 121.393 150.897 119.239 155.211 68.3037C159.893 61.066 159.689 53.9933 154.599 47.0855C152.073 43.6122 148.634 41.633 144.281 41.1479C143.97 38.703 144.942 37.2478 147.196 36.7821C160.738 41.6136 165.849 51.1409 162.526 65.364C162.481 65.5538 162.474 65.7504 162.503 65.9411C162.533 66.1319 162.599 66.3125 162.698 66.4715C162.797 66.6306 162.926 66.7644 163.077 66.8644C163.228 66.9643 163.398 67.0283 163.575 67.0521C167.102 67.4596 167.481 63.705 166.694 61.0854C163.974 52.3149 164.061 43.4085 166.956 34.3663C171.211 34.8514 174.621 35.938 177.186 37.6261L180.421 54.362C180.557 55.0938 180.742 55.7604 180.951 56.2708C181.159 56.7813 181.381 57.1108 181.587 57.2144C186.328 59.6593 187.222 58.4562 184.268 53.6052C184.061 53.2532 184.018 52.8188 184.148 52.3877C184.277 51.9566 184.57 51.5602 184.968 51.2768C186.852 49.9573 188.368 48.3371 189.514 46.4161C189.754 46.0151 189.886 45.5579 189.896 45.0887C189.906 44.6195 189.795 44.1543 189.573 43.7384C188.31 41.3129 188.028 38.8292 188.727 36.2873L192.371 35.3268C196.062 34.8029 197.218 36.5007 195.839 40.4203L191.176 61.522C191.066 62.0047 191.07 62.511 191.186 63.0043C191.302 63.4975 191.527 63.9655 191.846 64.3744L196.946 70.9523C197.295 71.3986 197.695 71.774 198.061 71.9973C198.426 72.2206 198.727 72.2739 198.899 72.1457L200.269 71.0979C202.018 86.5822 207.089 104.22 220.466 113.098C237.837 124.594 271.616 123.488 291.435 116.765C299.858 113.883 304.229 107.451 308.222 100.087C309.368 99.8544 310.398 99.4179 311.311 98.7775C311.569 98.5952 311.833 98.2919 312.089 97.8864C312.345 97.4809 312.586 96.9818 312.798 96.4199C313.711 93.9556 315.586 94.043 318.423 96.6819L316.12 100.931C315.499 104.036 314.08 106.665 311.865 108.819L294.262 121.305C274.822 129.368 248.125 127.156 228.161 123.226C210.703 119.792 204.262 106.753 197.85 91.1227C192.633 78.3452 187.562 57.942 173.018 62.9773C172.551 63.1428 172.127 63.3915 171.776 63.7073C171.425 64.0231 171.153 64.399 170.978 64.811L162.38 84.9231C156.338 97.0894 148.362 107.8 138.452 117.056C135.188 117.056 132.235 117.987 129.592 119.85C105.829 123.634 82.2897 122.703 58.9737 117.056L45.3921 110.624C44.3776 110.136 43.6134 109.538 43.2354 108.935C37.4064 99.3111 32.9569 89.0853 29.887 78.2579C28.7989 70.1277 27.6039 62.0168 26.3021 53.9254C25.5443 49.2103 27.0599 46.8818 31.1985 45.1645C31.6232 44.9924 31.9972 44.7476 32.2907 44.4494C32.5842 44.1513 32.789 43.8081 32.8889 43.4473C34.5793 37.2575 38.0476 32.2707 43.2937 28.4869C44.2489 27.7948 45.2047 27.4109 45.975 27.41C51.9595 27.4682 57.5748 29.1369 62.8209 32.4162Z" fill="#086E8C"/>
<path id="cabeza-98" d="M318.423 28.778L329.12 40.1874C329.46 40.5523 329.677 41.0069 329.736 41.4772C329.794 41.9476 329.69 42.406 329.44 42.7779C327.478 45.7855 324.806 47.7744 321.425 48.7446C320.508 49.0251 319.781 49.4913 319.385 50.0543C316.743 53.8187 315.81 52.1014 316.587 44.9026C316.84 42.4965 316.267 42.2831 314.868 44.2623C310.467 50.4327 316.442 57.3599 319.764 62.3661L318.307 67.4596L313.614 64.1416C313.384 63.9852 313.163 63.6729 312.975 63.2346C312.786 62.7963 312.635 62.2467 312.536 61.6385C312.225 59.8145 311.03 58.8055 308.951 58.6115C308.116 54.9635 306.085 52.538 302.86 51.335C302.303 51.1257 301.811 50.8762 301.418 50.6044C301.024 50.3326 300.741 50.0453 300.587 49.7633C299.945 48.5602 300.062 47.2214 300.936 45.7467C302.063 45.7273 303.015 45.3877 303.793 44.728C304.622 44.0316 305.469 43.6088 306.182 43.5346C311.448 43.0107 312.089 40.7987 308.106 36.8985L309.068 33.9879C310.778 31.0579 313.41 29.5638 316.966 29.5056L318.423 28.778Z" fill="#ECF9FD"/>
<path id="gafas-23" d="M144.282 41.1479C148.634 41.633 152.073 43.6122 154.599 47.0855L121.403 40.886C120.392 40.692 119.537 40.333 118.838 39.8091C110.24 33.2603 103.799 38.0627 95.3179 37.3933C84.9034 36.5783 74.5083 36.3746 64.1327 36.7821L41.895 44.6407C47.2577 37.7911 54.2331 33.7163 62.8212 32.4162C90.7033 28.1473 117.857 31.0579 144.282 41.1479Z" fill="#95CFCD"/>
<path id="ojos-26" d="M154.599 47.0855C159.689 53.9933 159.893 61.066 155.211 68.3037L152.413 67.4596L149.382 64.4326C139.822 58.8831 131.137 52.2566 123.326 44.5533C123.119 44.3481 122.882 44.1695 122.634 44.0322C122.386 43.8948 122.134 43.8026 121.898 43.7628C121.663 43.7231 121.45 43.7371 121.278 43.8037C121.105 43.8702 120.978 43.9874 120.907 44.1458L120.178 45.6593C120.068 45.89 120.156 46.2271 120.425 46.6042C120.695 46.9813 121.127 47.3711 121.636 47.6967C128.203 51.8492 133.527 57.224 137.607 63.8214L131.166 62.9773C125.628 60.7944 128.572 54.7112 120.149 53.8381C114.689 48.3856 111.59 49.7827 110.852 58.0293C110.806 58.5557 110.677 59.0451 110.474 59.4592C110.272 59.8733 110.002 60.2008 109.686 60.416C108.384 61.2892 106.801 61.4153 104.935 60.7944C105.732 57.6897 105.305 54.5657 103.653 51.4223C103.317 50.7755 102.954 50.2011 102.614 49.7787C102.275 49.3562 101.976 49.1067 101.759 49.0647C96.7845 48.1721 96.2988 49.87 100.301 54.1582C100.523 54.3965 100.672 54.75 100.733 55.1839C100.795 55.6177 100.766 56.1169 100.651 56.6322C100.418 57.6412 99.903 58.5435 99.1064 59.3391L92.5487 58.6114C90.2949 57.1367 87.7301 56.3509 84.8545 56.2539C84.3532 56.2395 83.8769 56.1136 83.5242 55.9022C83.1715 55.6909 82.9695 55.4103 82.96 55.1187C82.9212 53.1007 82.0177 52.1014 80.2495 52.1208C79.8485 52.1275 79.4482 52.2878 79.1037 52.5797C78.7592 52.8716 78.4875 53.2807 78.326 53.7508C77.063 57.3599 74.2748 58.9801 69.9613 58.6114C70.3111 54.556 69.6602 50.5976 68.0086 46.7362C68.883 44.9317 70.4568 43.8256 72.7301 43.4182C73.6822 43.2435 73.7696 42.9137 72.9924 42.4286L64.1323 36.782C74.508 36.3746 84.903 36.5783 95.3175 37.3933C103.799 38.0627 110.24 33.2602 118.838 39.809C119.537 40.333 120.392 40.6919 121.402 40.886L154.599 47.0855Z" fill="#249C9C"/>
<path id="lentes-2" d="M188.727 36.2873C188.028 38.8292 188.31 41.3129 189.573 43.7384C189.795 44.1543 189.906 44.6195 189.896 45.0887C189.886 45.5579 189.754 46.0151 189.514 46.4161C188.368 48.3371 186.852 49.9573 184.968 51.2768C184.57 51.5602 184.277 51.9566 184.148 52.3877C184.018 52.8188 184.061 53.2533 184.268 53.6053C187.222 58.4562 186.328 59.6593 181.587 57.2144C181.382 57.1108 181.159 56.7813 180.951 56.2709C180.742 55.7604 180.557 55.0938 180.421 54.362L177.186 37.6262L188.727 36.2873Z" fill="#5CB3AD"/>
<path id="ojos-8" d="M64.1326 36.782L72.9927 42.4286C73.7699 42.9137 73.6825 43.2435 72.7304 43.4182C70.4571 43.8257 68.8833 44.9317 68.0089 46.7362C62.5491 49.6662 59.1682 53.906 57.8664 59.4555C57.7486 59.9354 57.7615 60.4256 57.903 60.8549C58.0445 61.2842 58.3074 61.6301 58.6534 61.8422C59.9163 62.6183 61.5484 62.7057 63.5497 62.1041C56.0692 67.6343 47.5588 69.9045 38.0187 68.9149C36.9694 60.319 38.2615 52.2276 41.8949 44.6406L64.1326 36.782Z" fill="#647BAC"/>
<path id="ojos-42" d="M308.106 36.8985C312.089 40.7987 311.448 43.0107 306.182 43.5346C305.469 43.6088 304.622 44.0316 303.792 44.728C303.015 45.3877 302.063 45.7273 300.936 45.7467V43.5637C301.461 39.5471 303.851 37.3254 308.106 36.8985Z" fill="#A4D1DD"/>
<path id="ojos-7" d="M268.148 38.4702C269.236 41.8465 268.488 44.5145 265.904 46.4743C265.248 46.9784 264.781 47.7874 264.592 48.7446C264.242 50.5491 262.999 51.4902 260.862 51.5678L260.133 51.335C258.647 40.1292 252.351 43.7384 245.444 43.913C232.299 44.2332 223.643 47.9005 211.519 51.073C202.95 53.3433 202.95 55.7979 211.519 58.4368C212.028 58.5879 212.549 58.6072 213.006 58.4918C213.463 58.3765 213.83 58.1326 214.055 57.7965C214.774 56.7487 215.803 56.3218 217.144 56.5158C218.504 56.7099 218.689 57.292 217.698 58.2622L211.432 64.549C209.945 58.1458 199.511 63.705 200.269 69.6426C195.664 48.8028 211.286 42.3704 228.103 39.9546C241.393 38.053 254.741 37.5582 268.148 38.4702Z" fill="#95CFCD"/>
<path id="ojos-2" d="M268.148 38.4702L292.193 38.965L300.936 43.5637V45.7467C300.062 47.2214 299.945 48.5602 300.587 49.7633C300.741 50.0454 301.024 50.3326 301.417 50.6044C301.811 50.8762 302.303 51.1257 302.86 51.335C306.085 52.538 308.116 54.9635 308.951 58.6115C303.336 57.1174 297.75 57.4375 292.193 59.572C290.133 59.2615 288.472 59.9503 287.209 61.6385C283.906 55.8755 279.34 51.2865 273.511 47.8714C273.104 47.6318 272.658 47.475 272.197 47.41C271.737 47.345 271.272 47.3732 270.829 47.493C259.434 50.5782 280.185 50.9857 273.977 58.1167L260.862 51.5678C262.999 51.4902 264.243 50.5491 264.592 48.7446C264.781 47.7874 265.248 46.9784 265.904 46.4743C268.488 44.5145 269.236 41.8465 268.148 38.4702Z" fill="#A4C2D7"/>
<path id="ojos-4" d="M260.133 51.335C256.072 51.8783 252.536 51.0633 249.524 48.8901C249.078 48.5668 248.615 48.3303 248.188 48.2069C247.761 48.0835 247.386 48.0782 247.105 48.1915C243.18 49.8409 239.013 50.1028 234.602 48.9774C234.184 48.8759 233.722 48.933 233.28 49.141C232.837 49.349 232.434 49.698 232.125 50.1417C230.842 52.0238 230.464 54.1194 230.988 56.4285C224.965 56.3121 223.75 58.9801 227.345 64.4326C223.187 63.8699 218.572 64.6364 213.501 66.732C211.442 67.5858 210.752 66.8581 211.432 64.549L217.698 58.2622C218.689 57.292 218.504 56.7099 217.144 56.5158C215.804 56.3218 214.774 56.7487 214.055 57.7965C213.831 58.1326 213.463 58.3765 213.006 58.4918C212.549 58.6072 212.028 58.5879 211.519 58.4368C202.951 55.7979 202.951 53.3433 211.519 51.073C223.644 47.9005 232.3 44.2332 245.444 43.913C252.351 43.7384 258.647 40.1292 260.133 51.335Z" fill="#399595"/>
<path id="ojos-9" d="M149.382 64.4326C145.36 64.9565 141.629 71.8546 146.467 71.2143C143.903 74.8234 144.592 76.9675 148.537 77.6467C147.429 82.3036 144.777 84.1567 140.58 83.2059C140.348 83.1557 140.128 83.0651 139.931 82.9392C139.735 82.8134 139.566 82.655 139.436 82.4733C139.306 82.2916 139.216 82.0903 139.172 81.8812C139.128 81.6721 139.131 81.4595 139.181 81.2558C139.511 79.8975 139.21 78.7527 138.278 77.8213C137.972 77.5179 137.753 77.153 137.667 76.8013C137.58 76.4497 137.632 76.1378 137.811 75.9294C141.483 71.7964 141.415 67.7604 137.607 63.8214C133.527 57.2241 128.203 51.8492 121.636 47.6967C121.127 47.3711 120.695 46.9813 120.426 46.6042C120.156 46.2271 120.068 45.89 120.178 45.6593L120.907 44.1458C120.979 43.9875 121.106 43.8702 121.278 43.8037C121.45 43.7371 121.663 43.7232 121.899 43.7629C122.134 43.8026 122.386 43.8949 122.635 44.0322C122.883 44.1696 123.12 44.3481 123.326 44.5533C131.137 52.2567 139.822 58.8831 149.382 64.4326Z" fill="#95CFCD"/>
<path id="ojos-12" d="M68.0089 46.7363C69.6605 50.5976 70.3114 54.556 69.9617 58.6115C67.086 58.398 64.9487 59.5623 63.5498 62.1042C61.5485 62.7057 59.9163 62.6184 58.6534 61.8422C58.3075 61.6301 58.0446 61.2842 57.903 60.855C57.7615 60.4257 57.7487 59.9354 57.8665 59.4555C59.1683 53.906 62.5491 49.6663 68.0089 46.7363Z" fill="#03348C"/>
<path id="ojos-5" d="M287.208 61.6385C285.227 65.8103 285.431 69.6523 287.821 73.1644L281.992 71.2143C291.056 63.9378 277.066 63.2975 277.503 66.0043L273.977 65.1603C276.522 62.696 276.522 60.3481 273.977 58.1167C280.185 50.9857 259.433 50.5782 270.829 47.493C271.271 47.3732 271.736 47.345 272.197 47.41C272.657 47.4749 273.104 47.6318 273.51 47.8714C279.339 51.2865 283.905 55.8755 287.208 61.6385Z" fill="#74A8CF"/>
<path id="ojos-99" d="M260.133 51.335L260.861 51.5678L273.977 58.1166C276.522 60.3481 276.522 62.696 273.977 65.1603C272.15 66.4215 270.334 66.7126 268.527 66.0334C268.324 65.9598 268.137 65.8452 267.982 65.698C267.826 65.5508 267.705 65.3746 267.627 65.1824C267.549 64.9901 267.516 64.7865 267.53 64.5864C267.545 64.3862 267.606 64.1945 267.711 64.0251C269.595 60.9011 268.731 58.6696 265.117 57.3308C264.972 57.2751 264.816 57.2685 264.66 57.3115C264.505 57.3545 264.355 57.446 264.222 57.5787C264.089 57.7114 263.977 57.8817 263.895 58.0761C263.812 58.2704 263.762 58.4836 263.747 58.6988C262.989 70.865 241.363 64.9565 233.902 63.705L230.988 56.4285C230.463 54.1194 230.842 52.0238 232.124 50.1416C232.434 49.698 232.837 49.349 233.279 49.141C233.722 48.933 234.183 48.8759 234.602 48.9774C239.012 50.1028 243.18 49.8409 247.105 48.1915C247.386 48.0782 247.761 48.0835 248.188 48.2069C248.615 48.3303 249.078 48.5668 249.524 48.8901C252.536 51.0633 256.072 51.8783 260.133 51.335ZM251.593 55.0896C251.71 52.6253 250.291 51.985 247.338 53.1686C245.706 53.8284 245.541 54.556 246.843 55.3516C248.786 56.5546 249.602 58.3495 249.291 60.7362C249.257 60.9953 249.283 61.2592 249.367 61.5115C249.451 61.7639 249.591 61.9994 249.779 62.2038C249.968 62.4081 250.2 62.5769 250.461 62.6999C250.723 62.8229 251.009 62.8975 251.302 62.9191C259.307 63.5983 259.618 61.784 252.234 57.4763C252.022 57.3611 251.846 57.0685 251.731 56.6401C251.615 56.2117 251.567 55.6693 251.593 55.0896Z" fill="#05666A"/>
<path id="ojos-41" d="M104.935 60.7944L99.1061 59.3391C99.9028 58.5435 100.418 57.6412 100.651 56.6322C100.766 56.1169 100.794 55.6177 100.733 55.1839C100.672 54.75 100.523 54.3965 100.301 54.1582C96.2985 49.87 96.7842 48.1721 101.758 49.0647C101.976 49.1067 102.275 49.3562 102.614 49.7787C102.954 50.2011 103.317 50.7755 103.653 51.4223C105.304 54.5657 105.732 57.6897 104.935 60.7944Z" fill="#C7DCEC"/>
<path id="ojos-3" d="M120.15 53.8381C117.352 61.5609 121.024 64.6073 131.166 62.9773L137.608 63.8214C141.416 67.7604 141.484 71.7964 137.812 75.9295C137.632 76.1378 137.58 76.4497 137.667 76.8013C137.754 77.153 137.972 77.5179 138.278 77.8213C139.21 78.7527 139.512 79.8975 139.181 81.2558C139.132 81.4595 139.129 81.6721 139.173 81.8812C139.216 82.0903 139.306 82.2916 139.436 82.4733C139.567 82.655 139.735 82.8135 139.932 82.9393C140.128 83.0651 140.349 83.1557 140.58 83.2059C144.777 84.1567 147.429 82.3036 148.537 77.6467C150.752 75.4152 151.723 72.7472 151.451 69.6426L152.413 67.4596L155.211 68.3037C150.898 119.239 99.6607 121.393 62.4716 110.624C50.3181 107.102 45.1012 99.5052 40.9917 88.2994C45.4023 78.6751 52.8246 72.9994 63.2585 71.2725C63.6675 71.2104 64.0524 71.0433 64.3747 70.7879C64.697 70.5324 64.9453 70.1977 65.0947 69.8172C65.6776 68.3813 65.8233 66.8678 65.5318 65.2767C65.4659 64.862 65.6306 64.4252 65.9904 64.0604C66.3503 63.6956 66.8764 63.4321 67.4554 63.3266L92.5493 58.6115L99.1069 59.3391L104.936 60.7944C106.801 61.4153 108.385 61.2892 109.687 60.416C110.003 60.2009 110.273 59.8734 110.475 59.4593C110.677 59.0451 110.806 58.5557 110.852 58.0294C111.591 49.7827 114.69 48.3856 120.15 53.8381ZM118.923 74.3403C118.919 74.0727 118.559 73.8128 117.863 73.5752C117.167 73.3377 116.149 73.1272 114.866 72.9559C113.584 72.7845 112.062 72.6556 110.388 72.5765C108.714 72.4974 106.921 72.4697 105.111 72.495C103.301 72.5202 101.509 72.5979 99.8376 72.7236C98.1666 72.8493 96.649 73.0205 95.3716 73.2276C94.0941 73.4346 93.0819 73.6733 92.3926 73.9302C91.7033 74.187 91.3505 74.4569 91.3543 74.7245C91.3578 74.992 91.7178 75.252 92.4138 75.4895C93.1098 75.727 94.1282 75.9375 95.4107 76.1089C96.6933 76.2802 98.2149 76.4091 99.8888 76.4882C101.563 76.5673 103.356 76.595 105.166 76.5698C106.976 76.5445 108.768 76.4669 110.439 76.3412C112.11 76.2155 113.628 76.0442 114.905 75.8372C116.183 75.6301 117.195 75.3914 117.884 75.1345C118.574 74.8777 118.926 74.6078 118.923 74.3403Z" fill="#DEEAEF"/>
<path id="ojos-6" d="M92.5489 58.6115L67.455 63.3266C66.876 63.4321 66.3499 63.6957 65.9901 64.0604C65.6303 64.4252 65.4656 64.862 65.5315 65.2767C65.8229 66.8678 65.6772 68.3813 65.0943 69.8172C64.9449 70.1977 64.6966 70.5325 64.3743 70.7879C64.052 71.0433 63.6671 71.2104 63.2582 71.2725C52.8242 72.9995 45.402 78.6751 40.9914 88.2995L38.0186 68.9149C47.5587 69.9045 56.0691 67.6343 63.5496 62.1042C64.9486 59.5623 67.0859 58.398 69.9615 58.6115C74.275 58.9801 77.0632 57.3599 78.3262 53.7508C78.4877 53.2808 78.7594 52.8717 79.1039 52.5797C79.4484 52.2878 79.8487 52.1275 80.2497 52.1209C82.0179 52.1015 82.9213 53.1008 82.9602 55.1188C82.9697 55.4104 83.1717 55.6909 83.5244 55.9023C83.8771 56.1136 84.3534 56.2395 84.8546 56.2539C87.7303 56.3509 90.295 57.1368 92.5489 58.6115Z" fill="#A4C2D7"/>
<path id="ojos-36" d="M252.235 57.4763C259.618 61.784 259.307 63.5983 251.302 62.9191C251.01 62.8976 250.724 62.823 250.462 62.7C250.2 62.577 249.968 62.4081 249.78 62.2038C249.591 61.9994 249.451 61.7639 249.367 61.5116C249.283 61.2592 249.257 60.9954 249.291 60.7362C249.602 58.3495 248.786 56.5546 246.843 55.3516C245.541 54.556 245.706 53.8284 247.338 53.1687C250.292 51.985 251.71 52.6254 251.594 55.0897C251.568 55.6693 251.616 56.2118 251.731 56.6402C251.846 57.0686 252.022 57.3611 252.235 57.4763Z" fill="#ADD7D5"/>
<path id="ojos-71" d="M120.149 53.8381C128.572 54.7112 125.628 60.7944 131.166 62.9773C121.023 64.6072 117.351 61.5608 120.149 53.8381Z" fill="#A6DFD2"/>
<path id="ojos-35" d="M230.988 56.4285L233.902 63.705L227.345 64.4326C223.75 58.9801 224.965 56.3121 230.988 56.4285Z" fill="#B7DCE4"/>
<path id="ojos-64" d="M308.951 58.6115C311.03 58.8055 312.225 59.8145 312.536 61.6385C312.634 62.2467 312.785 62.7963 312.974 63.2346C313.163 63.6729 313.383 63.9852 313.614 64.1416L318.306 67.4596C319.181 68.5463 320.249 68.9343 321.512 68.6239C322.094 68.4814 322.642 68.4043 323.11 68.3993C323.577 68.3942 323.949 68.4613 324.194 68.5948C327.662 70.5157 318.248 70.6031 316.266 70.0501C315.779 69.912 315.287 69.8641 314.82 69.9092C314.354 69.9543 313.923 70.0915 313.556 70.312C310.777 71.9225 310.214 74.1637 311.865 77.0355C308.018 83.8462 296.069 80.3826 292.192 75.5802C303.238 73.6301 295.544 64.2871 292.192 59.572C297.749 57.4375 303.336 57.1174 308.951 58.6115Z" fill="#95CFCD"/>
<path id="ojos-4_2" d="M273.977 65.1603L277.504 66.0043L281.992 71.2143L287.821 73.1644L292.193 75.5802C296.069 80.3826 308.019 83.8462 311.866 77.0354L314.052 77.7631L308.223 100.087C304.23 107.451 299.858 113.883 291.435 116.765C271.616 123.488 237.837 124.594 220.467 113.098C207.089 104.22 202.018 86.5822 200.269 71.0979V69.6426C199.512 63.705 209.945 58.1457 211.432 64.549C210.752 66.8581 211.442 67.5857 213.501 66.732C218.572 64.6364 223.187 63.8699 227.345 64.4326L233.903 63.705C241.364 64.9565 262.989 70.865 263.747 58.6988C263.762 58.4836 263.813 58.2704 263.895 58.0761C263.978 57.8817 264.09 57.7114 264.223 57.5787C264.356 57.446 264.506 57.3545 264.661 57.3115C264.816 57.2685 264.972 57.2751 265.117 57.3308C268.731 58.6696 269.596 60.9011 267.711 64.0251C267.607 64.1945 267.545 64.3862 267.531 64.5864C267.516 64.7865 267.549 64.9901 267.627 65.1824C267.705 65.3746 267.827 65.5508 267.982 65.698C268.138 65.8452 268.324 65.9598 268.527 66.0334C270.334 66.7126 272.151 66.4215 273.977 65.1603ZM247.627 83.3048C247.674 83.1156 247.41 82.8525 246.849 82.5306C246.289 82.2087 245.443 81.8343 244.361 81.4289C243.279 81.0234 241.981 80.5949 240.541 80.1676C239.102 79.7404 237.549 79.3229 235.972 78.939C232.789 78.1641 229.7 77.5728 227.382 77.295C225.065 77.0172 223.71 77.0756 223.614 77.4575C223.568 77.6468 223.832 77.9099 224.392 78.2318C224.953 78.5537 225.798 78.928 226.881 79.3334C227.963 79.7389 229.261 80.1675 230.7 80.5947C232.14 81.0219 233.692 81.4394 235.27 81.8234C238.452 82.5982 241.542 83.1895 243.859 83.4673C246.176 83.7451 247.532 83.6867 247.627 83.3048Z" fill="#DEEAEF"/>
<path id="ojos-35_2" d="M292.192 59.5719C295.544 64.2871 303.238 73.6301 292.192 75.5802L287.821 73.1644C285.431 69.6523 285.227 65.8103 287.208 61.6385C288.471 59.9503 290.133 59.2615 292.192 59.5719Z" fill="#C7DCEC"/>
<path id="ojos-33" d="M149.382 64.4326L152.413 67.4596L151.451 69.6426L146.467 71.2143C141.629 71.8546 145.36 64.9565 149.382 64.4326Z" fill="#E7F4F1"/>
<path id="ojos-34" d="M281.992 71.2142L277.503 66.0043C277.066 63.2975 291.056 63.9378 281.992 71.2142Z" fill="#3382B4"/>
<path id="ojos-32" d="M151.451 69.6426C151.723 72.7472 150.751 75.4152 148.536 77.6467C144.592 76.9676 143.902 74.8234 146.467 71.2143L151.451 69.6426Z" fill="#5CB3AD"/>
<path id="ojos-14" d="M105.168 76.5696C112.781 76.4634 118.939 75.4653 118.924 74.3402C118.908 73.215 112.724 72.389 105.111 72.4952C97.4981 72.6013 91.3394 73.5995 91.3551 74.7246C91.3709 75.8497 97.5551 76.6757 105.168 76.5696Z" fill="#A4D1DD"/>
<path id="ojos-12_2" d="M235.27 81.8248C241.9 83.439 247.433 84.1019 247.628 83.3054C247.822 82.509 242.604 80.5547 235.974 78.9405C229.343 77.3263 223.81 76.6634 223.616 77.4599C223.421 78.2564 228.639 80.2106 235.27 81.8248Z" fill="#B7DCE4"/>
<path id="lentes-21" d="M314.051 77.7631L325.039 79.1311C325.691 79.2158 326.302 79.2473 326.784 79.2212C327.266 79.195 327.594 79.1125 327.72 78.9856C329.372 77.3168 330.343 77.5109 330.635 79.5677C330.659 79.6765 330.626 79.7868 330.537 79.891C330.448 79.9951 330.306 80.0906 330.12 80.1709C329.934 80.2511 329.71 80.3142 329.461 80.3558C329.213 80.3974 328.947 80.4165 328.682 80.4117L322.766 80.2953C318.258 80.2177 317.014 83.9239 319.035 91.4138C319.54 93.3542 319.336 95.1102 318.423 96.6819C315.586 94.043 313.711 93.9557 312.798 96.42C312.586 96.9819 312.345 97.4809 312.089 97.8864C311.833 98.2919 311.569 98.5952 311.312 98.7776C310.398 99.4179 309.369 99.8545 308.222 100.087L314.051 77.7631Z" fill="#117D9E"/>
<path id="cara-6" d="M162.38 84.9232C163.954 98.894 155.91 105.85 154.832 119.414C154.395 125.031 151.713 127.68 146.642 128.96C146.259 129.057 145.835 129.033 145.411 128.89C144.987 128.747 144.577 128.49 144.223 128.145C137.17 121.422 126.794 134.636 134.518 143.164C141.823 151.236 148.75 150.101 155.298 139.759C155.379 139.625 155.493 139.515 155.629 139.438C155.765 139.361 155.921 139.319 156.081 139.316C156.242 139.313 156.403 139.349 156.551 139.421C156.699 139.493 156.829 139.599 156.93 139.729C163.75 148.946 172.892 154.486 184.356 156.349L179.984 159.027C172.134 158.076 165.207 154.962 159.204 149.684C158.493 149.05 157.583 148.716 156.668 148.752C150.169 148.927 143.028 151.808 137.665 150.877C115.777 147.151 133.002 125.089 138.452 117.056C148.362 107.8 156.338 97.0894 162.38 84.9232Z" fill="#A4C2D7"/>
<path id="cara-4" d="M294.262 121.305L311.866 108.819C318.219 108.644 319.56 113.243 318.773 118.89C318.015 124.245 318.093 129.717 319.006 135.305C319.084 135.761 319.024 136.23 318.831 136.65C318.639 137.071 318.324 137.424 317.928 137.663C310.739 142.048 305.56 148.209 302.393 156.145C302.197 156.628 301.88 157.039 301.488 157.321C301.096 157.603 300.648 157.741 300.207 157.717L284.178 157.077C283.15 157.02 282.209 156.592 281.555 155.883C277.494 151.517 275.201 146.298 274.676 140.224C274.641 139.836 274.743 139.416 274.974 139.007C275.204 138.598 275.554 138.214 275.988 137.896C277.737 136.596 279.67 135.858 281.788 135.684C283.284 135.567 283.847 135.868 283.478 136.586L281.963 139.497C281.826 139.767 281.742 140.06 281.717 140.359C281.692 140.657 281.725 140.954 281.816 141.231C281.906 141.507 282.052 141.757 282.242 141.965C282.433 142.172 282.666 142.333 282.924 142.436C285.684 143.562 286.82 142.31 286.334 138.682C286.262 138.206 286.286 137.726 286.407 137.274C286.528 136.822 286.741 136.409 287.034 136.062C290.667 131.735 293.077 126.816 294.262 121.305Z" fill="#EAEAEA"/>
<path id="cara-1" d="M58.974 117.056C82.29 122.703 105.83 123.634 129.592 119.85C121.898 130.27 121.519 141.068 128.456 152.245L119.042 158.474C118.557 158.8 118.07 159.045 117.629 159.183C117.189 159.321 116.811 159.347 116.535 159.26C110.804 157.513 105.528 158.26 100.71 161.501C100.496 161.643 100.133 161.639 99.6793 161.492C99.225 161.344 98.7055 161.06 98.2032 160.686L90.2466 154.777L99.3399 147.501C100.195 146.802 100.127 146.366 99.1359 146.191C96.5711 145.754 79.3755 156.64 75.7907 158.532C70.5446 160.686 65.8522 163.752 61.7136 167.729C57.8276 171.474 54.4954 170.815 51.7169 165.75L45.5381 154.515C45.3035 154.085 44.9365 153.736 44.4845 153.513C44.0326 153.29 43.5164 153.203 43.0025 153.264C40.7486 153.555 38.5628 153.322 36.4449 152.565C36.2394 152.493 36.0512 152.378 35.8918 152.229C35.7324 152.08 35.6052 151.899 35.5179 151.697C35.4306 151.496 35.3851 151.278 35.3841 151.056C35.3831 150.835 35.4267 150.616 35.5122 150.411C36.9695 147.016 36.1534 144.503 33.0641 142.873C32.7173 142.69 32.4047 142.406 32.148 142.039C31.8913 141.672 31.6967 141.231 31.5777 140.748C30.8782 137.779 31.4416 135.102 33.2681 132.715C33.4818 132.424 33.7538 131.522 34.0841 130.008C34.9391 126.127 34.9876 122.266 34.2299 118.424C34.1411 117.976 34.1746 117.504 34.3273 117.052C34.4801 116.599 34.7472 116.18 35.1042 115.834C38.9805 112.195 52.9993 117.726 58.974 117.056Z" fill="#DEEAEF"/>
<path id="nariz-0" d="M138.452 117.056C133.002 125.089 115.777 147.151 137.665 150.877C143.028 151.808 150.168 148.927 156.668 148.752C157.583 148.716 158.492 149.05 159.203 149.684C165.207 154.962 172.134 158.076 179.984 159.027C181.402 158.988 182.199 159.454 182.374 160.424C182.543 161.283 183.067 162.057 183.831 162.578C185.308 163.587 185.424 164.566 184.181 165.517C184.038 165.612 183.703 165.679 183.221 165.71C182.738 165.741 182.129 165.735 181.47 165.692C179.663 165.595 178.021 165.013 176.545 163.946C176.388 163.824 176.023 163.76 175.497 163.76C174.972 163.76 174.31 163.824 173.601 163.946L165.965 165.255C165.978 165.279 165.927 165.257 165.813 165.188C165.699 165.12 165.526 165.008 165.303 164.859C165.08 164.71 164.812 164.526 164.515 164.319C164.218 164.112 163.899 163.886 163.575 163.655C160.583 161.481 157.018 160.269 152.879 160.016C151.402 159.919 150.547 159.822 150.314 159.725C148.974 159.085 147.963 158.154 147.283 156.931C147.117 156.644 146.755 156.43 146.251 156.319C145.746 156.209 145.127 156.209 144.485 156.32C138.151 157.368 132.808 156.009 128.455 152.245C121.519 141.068 121.898 130.27 129.592 119.85C132.235 117.987 135.188 117.056 138.452 117.056Z" fill="#0F5993"/>
<path id="cara-37" d="M287.821 180.856C285.431 181.846 284.372 183.582 284.644 186.066C284.699 186.672 284.701 187.233 284.651 187.718C284.601 188.203 284.5 188.601 284.353 188.889C283.692 190.151 282.662 191.111 281.263 191.771L276.28 195.525C272.685 194.536 270.791 192.149 270.596 188.365C280.894 188.21 281.982 184.339 273.861 176.752C263.465 163.208 251.72 150.916 238.624 139.875C238.274 139.584 238.187 139.361 238.362 139.206C238.441 139.125 238.562 139.086 238.701 139.097C238.841 139.107 238.989 139.167 239.12 139.264C256.111 152.42 272.957 163.975 287.821 180.856Z" fill="#03348C"/>
<path id="cara-27" d="M90.2466 154.777L81.6197 160.075C81.2746 160.287 80.9909 160.599 80.7966 160.982C80.6024 161.365 80.5043 161.805 80.5122 162.257C80.5511 164.314 79.5698 165.566 77.5685 166.012C73.8768 167.467 71.0692 170.009 69.1456 173.638C68.7376 174.375 68.9902 174.686 69.9034 174.569L76.5193 173.812C80.6191 176.277 83.9124 175.811 86.3995 172.415C87.1184 171.445 87.8665 170.776 88.6437 170.407L96.9208 166.449C97.4121 166.212 97.9342 166.092 98.4319 166.102C98.9295 166.112 99.3843 166.252 99.7479 166.507C102.216 168.292 103.955 170.669 104.965 173.638C105.027 173.823 105.055 174.023 105.045 174.217C105.035 174.411 104.989 174.594 104.91 174.749C104.832 174.903 104.723 175.024 104.595 175.1C104.467 175.175 104.323 175.203 104.178 175.18C102.876 174.928 101.671 175.161 100.564 175.879C100.146 176.16 99.7647 176.443 99.4877 176.677C99.2106 176.911 99.0552 177.082 99.0484 177.16C99.0484 179.081 103.478 176.752 104.907 179.779C101.215 182.981 97.9895 183.679 95.2304 181.875C94.6142 181.467 93.9872 181.145 93.4741 180.973C92.9611 180.8 92.5996 180.79 92.4617 180.943C91.6456 181.855 91.4707 183.068 91.937 184.582C92.7337 187.201 95.3762 188.482 99.8645 188.424C112.863 188.21 125.813 187.23 138.715 185.484C150.198 183.941 163.109 191.13 173.077 196.137C173.563 196.389 174.466 196.505 175.787 196.486L189.456 196.369L188.728 197.592C184.045 196.796 179.596 197.64 175.379 200.124C174.905 200.401 174.413 200.584 173.945 200.655C173.477 200.726 173.048 200.683 172.698 200.532C168.831 198.746 164.703 197.834 160.311 197.796C159.925 197.795 159.516 197.899 159.109 198.1C158.702 198.3 158.308 198.593 157.951 198.96L156.493 200.415C156.421 200.509 156.114 200.526 155.627 200.462C155.141 200.398 154.507 200.257 153.841 200.066L144.573 197.446C138.802 194.245 132.633 192.916 126.066 193.459C114.816 191.8 88.0316 196.369 86.5452 181.933C86.4828 181.337 86.3471 180.792 86.1494 180.341C85.9517 179.891 85.6977 179.548 85.4086 179.343C84.9617 179.013 84.6896 178.576 84.5925 178.033C84.3205 176.325 83.5336 176.451 82.2317 178.411L76.8691 186.473C72.3807 180.982 69.3496 181.05 67.7758 186.677C66.61 187.812 64.2201 193.401 62.7337 192.382C62.4822 192.201 62.2931 191.922 62.1896 191.581C62.0861 191.24 62.0726 190.851 62.1508 190.461C62.8503 187.104 62.3354 183.873 60.6061 180.769C60.4324 180.451 60.3397 180.036 60.3347 179.553C60.3297 179.07 60.4124 178.531 60.577 177.975C63.0834 169.65 68.1547 163.169 75.7907 158.532C79.3755 156.64 96.5711 145.754 99.1359 146.191C100.127 146.366 100.195 146.802 99.3399 147.501L90.2466 154.777Z" fill="#5E86BA"/>
<path id="cara-51" d="M209.858 151.023C206.593 151.566 205.622 152.866 206.943 154.923C207.201 155.308 207.544 155.636 207.951 155.887C208.357 156.138 208.818 156.305 209.304 156.378C211.849 156.766 214.22 156.029 216.415 154.166C216.901 157.659 218.961 159.415 222.594 159.434C222.769 159.434 223.575 159.686 225.013 160.191C227.85 161.161 227.908 162.791 225.188 165.081C224.966 165.271 224.618 165.314 224.214 165.201C223.809 165.088 223.377 164.827 223.002 164.469C217.931 159.696 214.871 161.064 213.821 168.573C213.51 170.514 212.898 170.601 211.985 168.835C204.446 154.263 196.431 153.545 187.941 166.681C187.429 167.457 186.675 168.057 185.784 168.399C174.126 172.852 193.07 170.32 189.456 175.763L182.753 175.937C182.253 175.954 181.766 175.856 181.337 175.653C180.909 175.449 180.553 175.146 180.305 174.773C175.02 167.05 170.852 168.166 167.801 178.12C167.732 178.342 167.617 178.55 167.467 178.726C167.317 178.901 167.137 179.038 166.944 179.122C166.75 179.207 166.551 179.237 166.364 179.209C166.178 179.182 166.01 179.097 165.878 178.964C164.654 177.8 164.275 176.286 164.741 174.424C164.784 174.243 164.776 174.056 164.718 173.877C164.66 173.697 164.554 173.53 164.407 173.389C164.26 173.248 164.077 173.137 163.872 173.064C163.667 172.991 163.446 172.958 163.226 172.968C160.447 173.104 157.775 172.619 155.211 171.513C154.972 171.415 154.714 171.374 154.456 171.394C154.198 171.414 153.947 171.495 153.722 171.63C153.497 171.765 153.304 171.95 153.158 172.172C153.012 172.394 152.916 172.646 152.879 172.91C152.51 175.588 151.393 177.819 149.527 179.604C149.316 179.821 148.967 179.922 148.538 179.89C148.108 179.858 147.624 179.696 147.167 179.43C143.183 177.14 140.376 178.246 138.744 182.748C138.656 182.981 138.534 183.203 138.388 183.397C138.242 183.591 138.076 183.751 137.903 183.865C137.73 183.978 137.555 184.041 137.393 184.05C137.23 184.058 137.084 184.011 136.966 183.912C136.033 183.155 135.547 182.175 135.509 180.972C135.503 180.732 135.455 180.491 135.371 180.271C135.286 180.05 135.167 179.855 135.022 179.702C134.878 179.549 134.712 179.442 134.538 179.39C134.364 179.337 134.188 179.341 134.022 179.401C129.728 180.875 125.706 180.322 121.956 177.742C121.629 177.511 121.195 177.387 120.699 177.382C120.203 177.377 119.661 177.491 119.129 177.713L114.816 179.575C114.545 179.692 114.26 179.78 113.981 179.832C113.702 179.885 113.437 179.9 113.205 179.878C112.973 179.856 112.779 179.796 112.64 179.703C112.5 179.611 112.417 179.487 112.397 179.343L112.018 176.839C111.95 176.414 111.71 176.02 111.335 175.719C110.96 175.419 110.472 175.229 109.948 175.18C106.762 174.889 105.081 176.422 104.906 179.779C103.478 176.752 99.0482 179.081 99.0482 177.16C99.0549 177.082 99.2104 176.911 99.4874 176.677C99.7645 176.443 100.145 176.16 100.564 175.879C101.671 175.161 102.876 174.928 104.178 175.18C104.323 175.203 104.466 175.175 104.595 175.099C104.723 175.024 104.831 174.903 104.91 174.749C104.989 174.594 105.035 174.411 105.045 174.217C105.054 174.022 105.027 173.823 104.965 173.638C103.954 170.669 102.215 168.292 99.7476 166.507C99.384 166.252 98.9293 166.112 98.4316 166.102C97.934 166.092 97.4119 166.212 96.9206 166.449L88.6434 170.407C87.8662 170.776 87.1181 171.445 86.3992 172.415C83.9122 175.811 80.6188 176.277 76.519 173.812C79.5307 172.571 79.8804 169.97 77.5683 166.012C79.5696 165.566 80.5508 164.314 80.5119 162.257C80.5041 161.805 80.6021 161.365 80.7964 160.982C80.9906 160.599 81.2744 160.286 81.6194 160.074L90.2464 154.777L98.203 160.686C98.7052 161.06 99.2248 161.344 99.679 161.492C100.133 161.639 100.496 161.642 100.709 161.501C105.528 158.26 110.803 157.513 116.535 159.259C116.811 159.347 117.188 159.321 117.629 159.183C118.069 159.045 118.557 158.8 119.042 158.474L128.456 152.245C132.808 156.009 138.151 157.368 144.485 156.32C145.127 156.209 145.746 156.209 146.251 156.319C146.755 156.43 147.117 156.644 147.283 156.931C147.963 158.153 148.974 159.085 150.314 159.725C150.547 159.822 151.402 159.919 152.879 160.016C157.018 160.268 160.583 161.481 163.575 163.654C163.899 163.886 164.219 164.112 164.515 164.319C164.812 164.526 165.08 164.71 165.303 164.859C165.526 165.008 165.699 165.12 165.813 165.188C165.927 165.257 165.979 165.279 165.965 165.255L173.601 163.945C174.311 163.824 174.972 163.76 175.498 163.76C176.023 163.76 176.388 163.824 176.545 163.945C178.022 165.013 179.663 165.595 181.47 165.692C182.129 165.735 182.738 165.741 183.221 165.71C183.703 165.679 184.038 165.612 184.181 165.517C185.424 164.566 185.308 163.587 183.831 162.578C183.067 162.057 182.543 161.283 182.374 160.424C182.199 159.454 181.402 158.988 179.984 159.027L184.356 156.349C191.079 156.077 196.441 153.341 200.444 148.141C200.723 147.767 201.089 147.478 201.497 147.308C201.906 147.137 202.339 147.093 202.746 147.181C205.447 147.724 207.817 149.005 209.858 151.023Z" fill="#7DA1C2"/>
<path id="nariz-1" d="M216.415 154.166C214.22 156.029 211.849 156.766 209.304 156.378C208.818 156.305 208.357 156.138 207.951 155.887C207.544 155.636 207.201 155.308 206.943 154.923C205.622 152.866 206.593 151.566 209.858 151.023L222.069 150.149C223.021 150.072 223.225 150.363 222.681 151.023C221.146 152.827 219.058 153.875 216.415 154.166Z" fill="#0F5993"/>
<path id="cara-24" d="M213.822 168.573L218.601 168.719C217.766 170.776 218.135 172.377 219.709 173.521C219.927 173.684 220.285 173.821 220.756 173.922C221.226 174.023 221.796 174.085 222.419 174.103L230.259 174.307L230.988 174.54L229.531 180.245C223.439 181.409 222.827 172.328 216.299 178.062H214.346L205.661 168.253C205.372 167.921 204.982 167.677 204.535 167.549C204.088 167.42 203.6 167.412 203.125 167.526C200.366 168.166 200.745 170.194 204.262 173.609C200.823 171.921 197.714 171.688 194.936 172.91C194.566 173.065 193.925 173.725 193.012 174.889C192.254 175.821 191.069 176.112 189.456 175.763C193.07 170.32 174.126 172.852 185.784 168.399C186.675 168.057 187.429 167.457 187.941 166.681C196.432 153.545 204.447 154.263 211.985 168.835C212.899 170.601 213.511 170.514 213.822 168.573Z" fill="#C7DCEC"/>
<path id="boca-29" d="M77.568 166.012C79.8802 169.97 79.5304 172.571 76.5188 173.812L69.9028 174.569C68.9896 174.686 68.737 174.375 69.1451 173.638C71.0686 170.009 73.8763 167.467 77.568 166.012Z" fill="#B7DCE4"/>
<path id="cara-26_2" d="M229.531 180.245L230.988 174.54L242.413 166.565C242.654 166.397 242.905 166.244 243.151 166.117C243.397 165.989 243.633 165.89 243.843 165.824C244.053 165.759 244.234 165.729 244.374 165.736C244.514 165.743 244.61 165.788 244.657 165.867C244.851 166.274 244.91 166.701 244.832 167.147C244.718 167.729 244.439 168.225 244.045 168.544L229.531 180.245Z" fill="#54A08B"/>
<path id="cara-27_2" d="M214.346 178.062C209.683 181.302 206.321 179.818 204.262 173.609C200.745 170.194 200.366 168.166 203.125 167.526C203.6 167.412 204.088 167.42 204.535 167.549C204.982 167.677 205.372 167.921 205.661 168.253L214.346 178.062ZM230.259 174.307L222.419 174.103C221.796 174.085 221.226 174.023 220.756 173.922C220.285 173.821 219.927 173.684 219.709 173.521C218.135 172.377 217.766 170.776 218.601 168.719C221.03 166.468 222.856 166.643 224.08 169.243C224.462 170.043 225.087 170.748 225.887 171.28L230.259 174.307Z" fill="#7DA1C2"/>
<path id="boca-56" d="M231.746 167.147H232.445C233.592 167.186 233.815 167.603 233.116 168.399C230.629 171.251 229.628 171.368 230.114 168.748C230.194 168.292 230.403 167.879 230.703 167.585C231.003 167.291 231.373 167.135 231.746 167.147Z" fill="#90B2CD"/>
<path id="cara-30" d="M253.604 178.731C258.85 176.345 259.929 177.198 256.839 181.293C256.558 181.664 256.197 181.968 255.783 182.179C255.369 182.391 254.913 182.506 254.45 182.515C239.702 182.719 248.825 161.646 254.683 170.64C255.05 171.2 255.321 171.767 255.464 172.279C255.608 172.792 255.62 173.231 255.499 173.55C254.255 176.674 253.187 176.228 252.293 172.212C252.251 172.036 252.151 171.888 252.002 171.783C251.854 171.677 251.662 171.617 251.445 171.608C251.228 171.599 250.993 171.642 250.764 171.733C250.535 171.823 250.319 171.958 250.136 172.124C247.513 174.492 247.814 176.665 251.04 178.644C251.398 178.868 251.821 178.993 252.269 179.009C252.717 179.024 253.176 178.929 253.604 178.731Z" fill="#647BAC"/>
<path id="boca-24" d="M268.264 182.428L270.596 188.365C270.79 192.149 272.685 194.536 276.279 195.525L274.589 200.619C270.975 197.621 262.115 187.609 257.218 193.284C253.352 192.799 251.01 193.566 250.194 195.584C241.082 197.893 232.562 201.356 224.634 205.974L226.266 198.349C226.302 198.169 226.288 197.984 226.226 197.807C226.163 197.63 226.054 197.466 225.906 197.326C225.758 197.187 225.574 197.076 225.369 197.001C225.165 196.926 224.943 196.889 224.722 196.893C218.893 196.99 213.161 197.33 207.526 197.912C203.271 198.349 198.141 196.544 193.566 199.076C193.11 199.335 192.632 199.497 192.178 199.548C191.724 199.599 191.309 199.537 190.972 199.367C190.136 198.96 189.388 198.368 188.728 197.592L189.456 196.369C202.669 196.02 215.774 194.196 228.773 190.898C229.289 190.767 229.812 190.76 230.282 190.879C230.751 190.997 231.148 191.236 231.425 191.567C235.447 196.146 238.614 195.506 240.926 189.646C241.002 189.46 241.114 189.288 241.252 189.145C241.391 189.002 241.551 188.892 241.718 188.826C241.886 188.759 242.056 188.738 242.212 188.765C242.369 188.791 242.508 188.864 242.617 188.977C242.811 189.19 242.957 189.471 243.054 189.821C243.122 190.106 243.252 190.362 243.428 190.559C243.604 190.755 243.818 190.883 244.045 190.927C250.593 192.207 255.955 190.306 260.133 185.222C265.476 186.056 266.652 184.64 263.659 180.972C263.97 180.623 264.116 180.196 264.097 179.692C264.099 179.323 263.964 178.966 263.717 178.688C263.471 178.409 263.129 178.228 262.756 178.178C259.375 177.713 258.588 175.782 260.395 172.386C260.471 172.241 260.583 172.117 260.724 172.024C260.865 171.931 261.031 171.87 261.213 171.845C261.395 171.82 261.587 171.832 261.777 171.88C261.968 171.929 262.152 172.012 262.319 172.124C265.661 174.472 267.643 177.907 268.264 182.428Z" fill="#134A62"/>
<path id="boca-53" d="M229.531 180.245L228.481 182.253C228.28 182.637 227.92 182.918 227.479 183.038C227.038 183.158 226.55 183.106 226.121 182.893L216.299 178.062C222.827 172.328 223.439 181.409 229.531 180.245Z" fill="#929DBB"/>
<path id="boca-57" d="M273.861 176.752C281.982 184.339 280.894 188.21 270.596 188.365L268.265 182.428L273.861 176.752Z" fill="#74A8CF"/>
<path id="boca-58" d="M263.659 180.972C266.652 184.64 265.476 186.056 260.133 185.222C260.444 183.01 261.619 181.593 263.659 180.972Z" fill="#647BAC"/>
<path id="boca-59" d="M287.821 180.856C289.298 184.95 288.705 188.686 286.043 192.062C285.865 192.275 285.576 192.393 285.233 192.393C284.889 192.393 284.514 192.275 284.178 192.062C283.478 191.596 282.507 191.499 281.263 191.771C282.662 191.111 283.692 190.151 284.353 188.889C284.5 188.601 284.601 188.203 284.651 187.718C284.701 187.233 284.699 186.672 284.644 186.066C284.372 183.582 285.431 181.846 287.821 180.856Z" fill="#45A3EA"/>
<path id="boca-76" d="M76.8687 186.473C78.8117 189.617 81.8524 191.383 85.991 191.771C83.5623 192.954 82.309 194.934 82.2313 197.708H81.0072C78.2482 194.72 75.0325 194.381 71.3602 196.69C71.24 196.764 71.1033 196.807 70.9614 196.815C70.8194 196.824 70.6761 196.797 70.5429 196.738C70.4097 196.678 70.2903 196.588 70.1944 196.473C70.0984 196.359 70.0286 196.223 69.9904 196.078L67.7754 186.677C69.3492 181.05 72.3803 180.982 76.8687 186.473Z" fill="#7DA1C2"/>
<path id="boca-62" d="M274.589 200.619C274.414 202.307 273.676 203.588 272.374 204.461C272.073 204.655 271.664 204.717 271.204 204.639C270.745 204.561 270.257 204.346 269.809 204.024L263.834 199.833C263.529 199.618 263.122 199.492 262.649 199.467C262.176 199.441 261.652 199.517 261.124 199.688C256.635 201.143 255.334 199.008 257.218 193.284C262.115 187.609 270.975 197.621 274.589 200.619Z" fill="#A4C2D7"/>
<path id="Subtract" fill-rule="evenodd" clip-rule="evenodd" d="M294.262 121.305C293.076 126.816 290.667 131.735 287.034 136.062C286.741 136.409 286.527 136.822 286.407 137.274C286.286 137.726 286.261 138.206 286.334 138.682C286.82 142.31 285.683 143.562 282.924 142.436C282.665 142.333 282.433 142.172 282.242 141.965C282.051 141.757 281.906 141.507 281.816 141.231C281.725 140.954 281.692 140.657 281.717 140.359C281.742 140.06 281.826 139.767 281.962 139.497L283.478 136.586C283.847 135.868 283.284 135.567 281.788 135.684C279.67 135.858 277.736 136.596 275.988 137.896C275.554 138.214 275.204 138.597 274.973 139.007C274.743 139.416 274.64 139.836 274.676 140.224C275.201 146.298 277.494 151.517 281.554 155.883C282.209 156.592 283.15 157.02 284.177 157.077L300.207 157.717C300.648 157.741 301.095 157.603 301.488 157.321C301.88 157.039 302.196 156.628 302.393 156.145C305.56 148.209 310.738 142.048 317.927 137.663C318.324 137.424 318.639 137.071 318.831 136.65C319.023 136.23 319.084 135.761 319.006 135.305C318.093 129.717 318.015 124.245 318.773 118.89C319.56 113.243 318.219 108.644 311.865 108.819C314.08 106.665 315.499 104.036 316.12 100.931C315.926 103.337 316.917 104.405 319.093 104.133C319.678 104.061 320.237 104.081 320.724 104.193C321.211 104.304 321.611 104.503 321.891 104.773C323.698 106.539 324.961 108.664 325.68 111.147C325.874 111.827 326.457 112.642 327.429 113.592L332.034 118.046C332.189 118.201 332.578 119.035 333.199 120.549C333.646 121.596 334.793 121.888 336.639 121.422L336.522 122.033L333.899 122.149C333.525 122.165 333.164 122.322 332.873 122.597C332.582 122.871 332.379 123.247 332.296 123.663L327.283 148.228L325.593 153.322C324.135 154.253 322.435 154.777 320.492 154.894C320.278 154.903 320.065 154.945 319.869 155.017C319.673 155.089 319.499 155.19 319.357 155.311C319.216 155.433 319.111 155.573 319.051 155.722C318.99 155.871 318.975 156.025 319.006 156.174C320.152 161.394 318.501 163.412 314.051 162.228C313.821 162.167 313.581 162.156 313.344 162.195C313.107 162.234 312.878 162.322 312.672 162.455C312.465 162.588 312.285 162.763 312.141 162.969C311.998 163.175 311.894 163.408 311.836 163.654C310.049 170.834 307.134 177.548 303.093 183.796C302.496 184.728 302.172 185.613 302.189 186.27C302.539 197.699 296.778 203.733 284.906 204.374C277.93 203.044 277.164 213.197 276.811 217.87L276.804 217.966L276.801 218H232.681C232.948 217.688 233.215 217.375 233.483 217.061C233.75 216.748 234.018 216.433 234.287 216.118C236.933 213.012 239.642 209.832 242.704 206.644C245.735 203.442 248.232 199.755 250.194 195.584C251.01 193.566 253.352 192.799 257.218 193.284C255.334 199.008 256.635 201.143 261.124 199.687C261.652 199.517 262.176 199.441 262.649 199.466C263.122 199.492 263.529 199.618 263.834 199.833L269.809 204.024C270.257 204.346 270.745 204.561 271.204 204.639C271.664 204.717 272.072 204.655 272.374 204.461C273.676 203.588 274.414 202.307 274.589 200.619L276.279 195.525L281.263 191.771C282.506 191.499 283.478 191.596 284.177 192.062C284.514 192.275 284.889 192.393 285.233 192.393C285.576 192.393 285.864 192.275 286.043 192.062C288.705 188.685 289.297 184.95 287.821 180.856C275.619 166.998 262.082 156.73 248.225 146.219C245.202 143.925 242.163 141.62 239.119 139.264C238.989 139.167 238.84 139.107 238.701 139.097C238.561 139.086 238.441 139.125 238.361 139.205C238.187 139.361 238.274 139.584 238.624 139.875C251.72 150.916 263.465 163.208 273.86 176.752L268.264 182.428C267.642 177.907 265.661 174.472 262.319 172.124C262.152 172.012 261.968 171.929 261.777 171.88C261.587 171.832 261.394 171.82 261.213 171.845C261.031 171.87 260.865 171.931 260.724 172.024C260.583 172.117 260.471 172.241 260.395 172.386C258.588 175.782 259.375 177.713 262.756 178.178C263.129 178.228 263.47 178.409 263.717 178.687C263.964 178.966 264.099 179.323 264.096 179.692C264.116 180.196 263.97 180.623 263.659 180.972C261.619 181.593 260.444 183.01 260.133 185.222C255.955 190.306 250.593 192.207 244.045 190.927C243.818 190.883 243.604 190.755 243.427 190.559C243.251 190.362 243.122 190.106 243.054 189.821C242.957 189.471 242.811 189.19 242.617 188.977C242.508 188.864 242.369 188.791 242.212 188.765C242.056 188.738 241.886 188.759 241.718 188.826C241.551 188.892 241.391 189.002 241.252 189.145C241.114 189.288 241.002 189.46 240.926 189.646C238.614 195.506 235.447 196.146 231.425 191.567C231.148 191.236 230.751 190.997 230.281 190.879C229.812 190.76 229.288 190.767 228.773 190.898C215.774 194.196 202.668 196.02 189.456 196.369L175.787 196.486C174.466 196.505 173.562 196.389 173.077 196.137C172.287 195.74 171.48 195.33 170.656 194.912C161.073 190.047 149.288 184.063 138.715 185.484C125.813 187.23 112.863 188.21 99.8642 188.424C95.3758 188.482 92.7334 187.201 91.9367 184.582C91.4704 183.068 91.6453 181.855 92.4613 180.943C92.5993 180.79 92.9608 180.8 93.4738 180.972C93.9869 181.145 94.6139 181.467 95.2301 181.875C97.9892 183.679 101.215 182.981 104.906 179.779C105.081 176.422 106.762 174.889 109.948 175.18C110.472 175.229 110.96 175.419 111.335 175.719C111.71 176.02 111.95 176.414 112.018 176.839L112.397 179.342C112.417 179.487 112.5 179.611 112.64 179.703C112.779 179.796 112.973 179.856 113.205 179.878C113.437 179.9 113.702 179.885 113.981 179.832C114.259 179.78 114.545 179.692 114.816 179.575L119.129 177.713C119.661 177.491 120.203 177.377 120.699 177.382C121.195 177.387 121.629 177.511 121.956 177.742C125.706 180.322 129.728 180.875 134.022 179.401C134.187 179.341 134.364 179.337 134.538 179.39C134.712 179.442 134.878 179.549 135.022 179.702C135.167 179.855 135.286 180.05 135.371 180.271C135.455 180.491 135.503 180.732 135.509 180.972C135.547 182.175 136.033 183.155 136.966 183.912C137.084 184.011 137.23 184.058 137.393 184.05C137.555 184.041 137.73 183.978 137.903 183.865C138.076 183.751 138.242 183.591 138.388 183.397C138.534 183.203 138.656 182.981 138.744 182.748C140.376 178.246 143.183 177.14 147.167 179.43C147.624 179.696 148.108 179.858 148.538 179.89C148.967 179.922 149.316 179.821 149.527 179.604C151.393 177.819 152.51 175.588 152.879 172.91C152.916 172.646 153.012 172.394 153.158 172.172C153.304 171.95 153.497 171.765 153.722 171.63C153.947 171.495 154.198 171.414 154.456 171.394C154.714 171.374 154.972 171.415 155.211 171.513C157.775 172.619 160.447 173.104 163.225 172.968C163.446 172.958 163.667 172.991 163.872 173.064C164.077 173.137 164.26 173.248 164.407 173.389C164.553 173.53 164.66 173.697 164.718 173.877C164.776 174.056 164.784 174.243 164.741 174.424C164.275 176.286 164.654 177.8 165.878 178.964C166.01 179.097 166.178 179.182 166.364 179.209C166.551 179.237 166.75 179.207 166.943 179.122C167.137 179.038 167.317 178.901 167.467 178.726C167.617 178.55 167.732 178.342 167.801 178.12C170.852 168.166 175.02 167.05 180.305 174.773C180.553 175.146 180.909 175.449 181.337 175.653C181.766 175.856 182.253 175.954 182.753 175.937L189.456 175.763C191.069 176.112 192.254 175.821 193.012 174.889C193.925 173.725 194.566 173.065 194.935 172.91C197.714 171.688 200.823 171.921 204.262 173.609C206.321 179.818 209.683 181.302 214.346 178.062H216.299L226.121 182.893C226.55 183.106 227.038 183.158 227.479 183.038C227.92 182.918 228.28 182.637 228.481 182.253L229.53 180.245L244.045 168.544C244.439 168.225 244.718 167.729 244.832 167.147C244.909 166.701 244.851 166.274 244.657 165.866C244.61 165.788 244.514 165.743 244.374 165.736C244.234 165.729 244.053 165.759 243.843 165.824C243.633 165.889 243.397 165.989 243.151 166.116C242.905 166.244 242.654 166.397 242.413 166.565L230.988 174.54L230.259 174.307L225.887 171.28C225.087 170.748 224.462 170.043 224.08 169.243C222.856 166.643 221.03 166.468 218.601 168.719L213.821 168.573C214.871 161.064 217.931 159.696 223.002 164.469C223.377 164.827 223.809 165.088 224.214 165.201C224.618 165.314 224.966 165.271 225.188 165.081C227.908 162.791 227.85 161.161 225.013 160.191C223.575 159.686 222.769 159.434 222.594 159.434C218.961 159.415 216.901 157.659 216.415 154.166C219.058 153.875 221.146 152.827 222.681 151.023C223.225 150.363 223.021 150.072 222.069 150.149L209.858 151.023C207.817 149.005 205.447 147.724 202.746 147.181C202.339 147.093 201.906 147.137 201.497 147.308C201.089 147.478 200.723 147.767 200.444 148.141C196.441 153.341 191.078 156.077 184.356 156.349C172.892 154.486 163.75 148.946 156.93 139.729C156.829 139.599 156.699 139.493 156.551 139.421C156.403 139.349 156.242 139.313 156.081 139.316C155.921 139.319 155.765 139.36 155.629 139.438C155.492 139.515 155.379 139.625 155.298 139.759C148.75 150.101 141.823 151.236 134.518 143.164C126.794 134.636 137.17 121.422 144.223 128.145C144.577 128.49 144.987 128.747 145.411 128.89C145.835 129.033 146.259 129.057 146.642 128.96C151.713 127.68 154.395 125.031 154.832 119.414C155.302 113.505 157.093 108.85 158.836 104.323C161.093 98.4579 163.268 92.8075 162.38 84.9231L170.978 64.811C171.153 64.399 171.425 64.0231 171.776 63.7073C172.127 63.3915 172.551 63.1428 173.018 62.9773C185.574 58.6301 191.07 73.244 195.695 85.5417C196.427 87.4882 197.137 89.3766 197.85 91.1227C204.262 106.752 210.703 119.792 228.161 123.226C248.125 127.156 274.822 129.368 294.262 121.305ZM83.0286 198C82.7703 197.897 82.5045 197.8 82.2314 197.708H81.0073C81.0411 197.805 81.0747 197.903 81.1081 198H83.0286ZM134.629 218H136.299C136.759 217.869 137.195 217.654 137.607 217.355C138.695 212.756 140.473 212.028 142.941 215.172C146.555 216.957 150.042 216.724 153.404 214.473C153.553 214.368 153.725 214.294 153.903 214.258C154.082 214.223 154.262 214.227 154.427 214.27C154.592 214.314 154.736 214.395 154.848 214.507C154.959 214.618 155.034 214.757 155.065 214.91C155.302 216.171 154.714 217.148 154.02 218H221.37C221.358 217.186 221.261 216.308 221.049 215.346C221.016 215.242 220.83 215.029 220.519 214.739C220.208 214.45 219.79 214.1 219.33 213.746C218.669 213.222 217.94 212.969 217.144 212.989C215.395 213.047 215.434 212.436 217.26 211.155L224.634 205.974L226.266 198.349C226.302 198.169 226.288 197.984 226.226 197.807C226.163 197.63 226.054 197.466 225.906 197.326C225.758 197.187 225.574 197.075 225.369 197.001C225.164 196.926 224.943 196.889 224.722 196.893C218.893 196.99 213.161 197.33 207.526 197.912C206.094 198.059 204.563 197.952 202.988 197.842H202.987C199.881 197.625 196.601 197.396 193.566 199.076C193.109 199.335 192.632 199.497 192.178 199.548C191.724 199.599 191.309 199.537 190.972 199.367C190.136 198.96 189.388 198.368 188.727 197.592C184.045 196.796 179.595 197.64 175.379 200.124C174.905 200.401 174.412 200.583 173.944 200.655C173.476 200.726 173.048 200.683 172.698 200.532C168.831 198.746 164.702 197.834 160.311 197.796C159.925 197.795 159.516 197.899 159.109 198.099C158.702 198.3 158.307 198.593 157.95 198.96L156.493 200.415C156.421 200.509 156.114 200.526 155.627 200.462C155.141 200.398 154.507 200.257 153.841 200.066L144.573 197.446C141.911 200.958 139.2 201.444 136.441 198.902C135.582 198.118 134.712 197.636 134.022 197.563C124.229 196.457 131.632 213.28 133.381 216.773C133.605 217.216 133.929 217.585 134.309 217.83C134.375 217.872 134.441 217.91 134.509 217.944C134.549 217.964 134.589 217.983 134.629 218ZM230.113 168.748C229.628 171.367 230.628 171.251 233.115 168.399C233.815 167.603 233.591 167.186 232.445 167.147H231.746C231.373 167.135 231.002 167.291 230.702 167.585C230.403 167.879 230.193 168.292 230.113 168.748ZM251.04 178.644C247.814 176.665 247.513 174.492 250.136 172.124C250.318 171.958 250.535 171.823 250.764 171.733C250.993 171.642 251.228 171.599 251.445 171.608C251.662 171.617 251.854 171.677 252.002 171.783C252.151 171.888 252.251 172.036 252.293 172.212C253.187 176.228 254.255 176.674 255.499 173.55C255.62 173.231 255.608 172.792 255.464 172.279C255.32 171.767 255.05 171.2 254.683 170.64C248.825 161.646 239.702 182.719 254.45 182.515C254.913 182.506 255.369 182.391 255.783 182.179C256.196 181.968 256.558 181.664 256.839 181.293C259.929 177.198 258.85 176.345 253.604 178.731C253.176 178.929 252.717 179.024 252.269 179.009C251.821 178.993 251.398 178.868 251.04 178.644ZM202.28 215.492C200.589 217.141 200.861 217.675 203.096 217.093L209.858 215.259C211.645 214.793 211.645 214.318 209.858 213.833C206.749 213.018 204.223 213.571 202.28 215.492Z" fill="#DEEAEF"/>
</g>
</svg>
