<svg width="88" height="48" viewBox="0 0 88 48" fill="none" xmlns="http://www.w3.org/2000/svg">
<g clip-path="url(#clip0_25_156)">
<path d="M33.54 20.7701C33.54 20.7701 45.9774 49.0982 65.2453 47.9643C84.5134 46.8305 88.4857 29.6578 87.9443 20.5211C87.6233 15.1008 85.2611 -1.0773 64.9054 0.120368C44.5496 1.31862 48.7383 11.4841 57.013 22.1859C57.013 22.1859 77.4355 -6.83296 78.621 21.0699C79.8065 48.9722 52.9569 32.681 33.54 20.7701Z" fill="#999999"/>
<path d="M54.355 28.6804C54.355 28.6804 43.2961 -0.209936 23.9958 0.00115112C4.69532 0.212092 -0.0993145 17.1751 0.00139087 26.3271C0.0611115 31.7565 1.64151 48.0289 22.0313 47.8061C42.4215 47.583 38.727 37.2289 30.9772 26.1435C30.9772 26.1435 9.1808 54.1522 9.34035 26.2248C9.50004 -1.70199 35.534 15.8546 54.355 28.6804Z" fill="white"/>
<path d="M16 23.5674C16 20.5105 18.4773 18.0327 21.5331 18.0327C24.5889 18.0327 27.0664 20.5105 27.0664 23.5674C27.0664 26.624 24.5889 29.1019 21.5331 29.1019C18.4773 29.1019 16 26.624 16 23.5674Z" fill="#999999"/>
<path d="M64 23.5674C64 20.5105 66.4773 18.0327 69.5331 18.0327C72.5889 18.0327 75.0664 20.5105 75.0664 23.5674C75.0664 26.624 72.5889 29.1019 69.5331 29.1019C66.4773 29.1019 64 26.624 64 23.5674Z" fill="white"/>
</g>
<defs>
<clipPath id="clip0_25_156">
<rect width="88" height="48" fill="white"/>
</clipPath>
</defs>
</svg>
