<svg xmlns="http://www.w3.org/2000/svg" viewBox="0 0 640 512"><!--!Font Awesome Pro 6.5.2 by @fontawesome - https://fontawesome.com License - https://fontawesome.com/license (Commercial License) Copyright 2024 Fonticons, Inc.--><path d="M616 96H24c-13.3 0-24 10.7-24 24v272c0 13.3 10.7 24 24 24h592c13.3 0 24-10.7 24-24V120c0-13.3-10.7-24-24-24zM304 384H32V128h272v256zm304 0H336V128h272v256zM91.1 352h10.3a12 12 0 0 0 11.4-8.2l13.5-41h67.3l13.5 41A12 12 0 0 0 218.6 352h10.3c8.3 0 14.1-8.2 11.3-16l-59.2-168A12 12 0 0 0 169.8 160h-19.5a12 12 0 0 0 -11.3 8l-59.2 168C77 343.8 82.8 352 91.1 352zm60.7-129c3.8-10.8 8.1-29.7 8.1-29.7h.5s4.1 18.9 7.6 29.7l17 51.4h-50.3l17-51.4zM384 212v-8c0-6.6 5.4-12 12-12h68v-20c0-6.6 5.4-12 12-12h8c6.6 0 12 5.4 12 12v20h68c6.6 0 12 5.4 12 12v8c0 6.6-5.4 12-12 12h-15.7c-7.5 24.8-23.4 50.9-44.9 74.8 10 9.1 20.5 17.3 30.9 24.1 5.3 3.5 7 10.5 3.8 16l-4 7c-3.4 6-11.2 7.8-17 4.1-13.1-8.5-25.4-18.2-36.6-28.5-11.7 10.5-24.5 20.1-38 28.7-5.8 3.6-13.4 1.7-16.8-4.2l-4-7c-3.2-5.6-1.4-12.7 4.1-16.1 11.4-7.2 22.2-15.4 32.2-24.2-10-11.3-18.7-22.6-25.7-33-3.8-5.7-2.1-13.5 3.8-17l6.9-4.1c5.5-3.3 12.6-1.7 16.1 3.6 6.4 9.5 13.7 18.9 21.7 28 15-16.9 26.7-34.9 33.5-52H396c-6.6 0-12-5.4-12-12z"/></svg>