<svg width="316" height="273" viewBox="0 0 316 273" fill="none" xmlns="http://www.w3.org/2000/svg">
<path d="M52.0775 72.0736L48.7281 59.382H26.6316L23.1892 72.0736H3L25.1895 4.07614H49.705L72.1737 72.0736H52.0775ZM44.9136 44.3744L41.9829 33.2576C41.3006 30.7872 40.4632 27.5912 39.4708 23.6694C38.5095 19.7477 37.8737 16.9376 37.5636 15.2392C37.2845 16.8141 36.7262 19.408 35.8889 23.0209C35.0826 26.6339 33.2683 33.7517 30.4462 44.3744H44.9136Z" fill="#1B2534"/>
<path d="M110.691 18.6669C116.429 18.6669 120.972 21.0601 124.321 25.8464C127.702 30.6328 129.392 37.2566 129.392 45.7176C129.392 54.2405 127.686 60.926 124.275 65.7741C120.894 70.5914 116.181 73 110.133 73C108.179 73 106.443 72.7838 104.923 72.3515C103.403 71.9501 102.039 71.3788 100.829 70.6377C99.6508 69.8966 98.2708 68.6614 96.6891 66.9321H95.5727L92.6885 72.0736H78.5002V0H96.6891V16.3046C96.6891 18.25 96.472 21.6005 96.0379 26.356H96.6891C98.4569 23.6385 100.488 21.6777 102.783 20.4734C105.109 19.269 107.745 18.6669 110.691 18.6669ZM104.039 32.8871C101.496 32.8871 99.6353 33.7671 98.4569 35.5273C97.2784 37.2874 96.6891 40.0512 96.6891 43.8185V46.3661C96.6891 50.6584 97.2784 53.7464 98.4569 55.6301C99.6353 57.4829 101.558 58.4093 104.225 58.4093C106.365 58.4093 108.009 57.3285 109.156 55.1669C110.304 52.9744 110.877 49.7629 110.877 45.5324C110.877 37.1022 108.598 32.8871 104.039 32.8871Z" fill="#1B2534"/>
<path d="M190.146 45.7176C190.146 54.3022 187.82 61.0032 183.168 65.8204C178.547 70.6068 172.065 73 163.723 73C155.722 73 149.349 70.5451 144.604 65.6352C139.89 60.7253 137.533 54.0861 137.533 45.7176C137.533 37.1639 139.843 30.5247 144.464 25.8001C149.116 21.0446 155.629 18.6669 164.002 18.6669C169.181 18.6669 173.756 19.7631 177.725 21.9556C181.695 24.1481 184.749 27.2978 186.889 31.4048C189.06 35.481 190.146 40.2519 190.146 45.7176ZM156.001 45.7176C156.001 50.2261 156.606 53.6692 157.815 56.047C159.025 58.3938 161.056 59.5673 163.909 59.5673C166.731 59.5673 168.716 58.3938 169.863 56.047C171.042 53.6692 171.631 50.2261 171.631 45.7176C171.631 41.2401 171.042 37.8587 169.863 35.5736C168.685 33.2885 166.669 32.1459 163.816 32.1459C161.025 32.1459 159.025 33.2885 157.815 35.5736C156.606 37.8278 156.001 41.2092 156.001 45.7176Z" fill="#1B2534"/>
<path d="M238.107 72.0736L235.827 65.5425H234.757C233.238 67.9511 231.113 69.8039 228.384 71.1009C225.686 72.367 222.507 73 218.848 73C213.049 73 208.536 71.3325 205.311 67.9975C202.086 64.6316 200.473 59.8915 200.473 53.7773V19.5933H218.662V48.2652C218.662 51.6929 219.142 54.2868 220.104 56.047C221.096 57.8071 222.709 58.6872 224.942 58.6872C228.074 58.6872 230.307 57.4674 231.641 55.0279C232.974 52.5575 233.641 48.4042 233.641 42.5679V19.5933H251.83V72.0736H238.107Z" fill="#1B2534"/>
<path d="M290.208 58.6872C292.658 58.6872 295.589 58.085 299 56.8807V70.0819C296.55 71.1318 294.209 71.8729 291.976 72.3052C289.774 72.7684 287.184 73 284.207 73C278.097 73 273.694 71.5178 270.996 68.5533C268.297 65.558 266.948 60.9723 266.948 54.7963V33.165H260.575V25.8001L268.67 20.1028L273.368 9.07868H285.277V19.5933H298.209V33.165H285.277V53.592C285.277 56.9888 286.921 58.6872 290.208 58.6872Z" fill="#1B2534"/>
<g filter="url(#filter0_d_201_80)">
<path d="M67.6367 249L38.4375 146.168H37.5586C38.9258 163.681 39.6094 177.288 39.6094 186.988V249H5.42969V106.227H56.7969L86.582 207.594H87.3633L116.562 106.227H168.027V249H132.578V186.402C132.578 183.147 132.611 179.534 132.676 175.562C132.806 171.591 133.262 161.858 134.043 146.363H133.164L104.355 249H67.6367Z" fill="url(#paint0_linear_201_80)"/>
<path d="M249.961 250.953C231.536 250.953 217.214 246.07 206.992 236.305C196.836 226.474 191.758 212.509 191.758 194.41C191.758 175.725 196.478 161.402 205.918 151.441C215.358 141.415 228.835 136.402 246.348 136.402C263.014 136.402 275.872 140.764 284.922 149.488C294.036 158.147 298.594 170.647 298.594 186.988V203.98H230.332C230.592 210.165 232.839 215.016 237.07 218.531C241.367 222.047 247.194 223.805 254.551 223.805C261.257 223.805 267.409 223.186 273.008 221.949C278.672 220.647 284.792 218.466 291.367 215.406V242.848C285.378 245.908 279.193 248.023 272.812 249.195C266.432 250.367 258.815 250.953 249.961 250.953ZM247.715 162.379C243.223 162.379 239.447 163.811 236.387 166.676C233.392 169.475 231.634 173.902 231.113 179.957H263.926C263.796 174.618 262.266 170.354 259.336 167.164C256.471 163.974 252.598 162.379 247.715 162.379Z" fill="url(#paint1_linear_201_80)"/>
</g>
<defs>
<filter id="filter0_d_201_80" x="0.429688" y="106.227" width="315.164" height="166.727" filterUnits="userSpaceOnUse" color-interpolation-filters="sRGB">
<feFlood flood-opacity="0" result="BackgroundImageFix"/>
<feColorMatrix in="SourceAlpha" type="matrix" values="0 0 0 0 0 0 0 0 0 0 0 0 0 0 0 0 0 0 127 0" result="hardAlpha"/>
<feOffset dx="6" dy="11"/>
<feGaussianBlur stdDeviation="5.5"/>
<feComposite in2="hardAlpha" operator="out"/>
<feColorMatrix type="matrix" values="0 0 0 0 0.8 0 0 0 0 0.8 0 0 0 0 0.8 0 0 0 1 0"/>
<feBlend mode="normal" in2="BackgroundImageFix" result="effect1_dropShadow_201_80"/>
<feBlend mode="normal" in="SourceGraphic" in2="effect1_dropShadow_201_80" result="shape"/>
</filter>
<linearGradient id="paint0_linear_201_80" x1="-10" y1="171.5" x2="307" y2="171.5" gradientUnits="userSpaceOnUse">
<stop stop-color="#0970B9"/>
<stop offset="1" stop-color="#6A7500"/>
</linearGradient>
<linearGradient id="paint1_linear_201_80" x1="-10" y1="171.5" x2="307" y2="171.5" gradientUnits="userSpaceOnUse">
<stop stop-color="#0970B9"/>
<stop offset="1" stop-color="#6A7500"/>
</linearGradient>
</defs>
</svg>
